<!--version="1.0" encoding="UTF-8"-->
<!DOCTYPE html PUBLIC "-//W3C//DTD SVG 1.1//EN" "http://www.w3.org/Graphics/SVG/1.1/DTD/svg11.dtd"><!-- Creator: CorelDRAW --><svg xmlns="http://www.w3.org/2000/svg" xml:space="preserve" width="299.573" height="332.804" version="1.1" style="fill-rule: evenodd; clip-rule: evenodd;" viewBox="0 0 7716.61 8572.59" preserveAspectRatio="xMidYMid meet" zoomAndPan="magnify" contentScriptType="application/ecmascript" contentStyleType="text/css">
  <defs>
    <style type="text/css" xml:space="preserve">
      .fil6 {
        fill: rgb(254, 254, 254);
        fill-rule: nonzero;
      }

      .fil0 {
        fill: rgb(9, 10, 31);
        fill-rule: nonzero;
      }

      .fil5 {
        fill: rgb(37, 250, 249);
        fill-rule: nonzero;
      }

      .fil3 {
        fill: rgb(140, 122, 152);
        fill-rule: nonzero;
      }

      .fil4 {
        fill: rgb(219, 221, 222);
        fill-rule: nonzero;
      }

      .fil2 {
        fill: rgb(252, 174, 217);
        fill-rule: nonzero;
      }

      .fil1 {
        fill: rgb(253, 254, 253);
        fill-rule: nonzero;
      }
    </style>
  </defs>
  <g id="Layer_x0020_1">
    <g id="_3175424375184">
      <g id="__x0023_090a1fff">
        <path class="fil0" d="M4407.46 74.87c312.65-97.97 657.61-103.27 968.39 4.85 4.1 41.07 11.73 81.49 21.05 121.63 28.68 158.23 49.63 320.47 27.29 480.84-4.48 32.78-10.07 65.29-14.62 97.98 149.66 72.27 298.95 145.84 439.67 234.41 125.73 83.26 246.24 174.15 362.01 270.73 99.56 92.67 202.19 182.17 294.39 282.38 109.15 121.17 217.83 243.54 309.66 378.58 56.81 84.01 111.3 169.51 164.84 255.56 107.75 178.72 198.09 367.22 278.65 559.53 54.11 134.11 98.44 271.94 141.09 410.06 60.35 231.89 109.25 467.79 124.71 707.33 14.06 157.49 11.08 316.09 7.17 474.04-23.84 363.12-97.23 722.15-208.43 1068.31-13.04 32.78-25.33 66.31-26.64 101.98 139.98-.1 279.96-.93 419.93.28-26.45 113.24-62.31 223.98-93.5 335.93-66.78 236.09-136.81 471.34-200.51 708.36-95.55 315.53-178.53 634.79-274.18 950.22-3.82 16.67-25.33 10.62-37.53 12.75-177.04.47-354.09-.37-531.13.93-12.1-1.02-22.82 4.57-31.48 12.48-182.44 161.49-373.74 313.86-581.52 441.82-176.49 102.82-356.23 202-547.15 275.57-120.89 50.01-244.1 94.43-368.99 133.17-128.62 35.95-256.58 75.63-388.45 98.26-502.07 105.61-1024.92 104.59-1528.1 7.08-381.85-75.63-751.02-210.2-1097.47-386.77-138.96-72.65-273.15-153.86-405.5-237.96-144.45-98.25-282.19-205.91-414.62-319.81-13.69-11.18-27.94-25.23-47.13-23.66-193.15-1.49-386.4-.84-579.56-.92-39.86-113.25-71.71-229.39-105.33-344.69-126.01-405.58-242.23-814.16-361.72-1221.7-39.58-147.24-87.63-292.25-122.75-440.6 165.68-2.71 331.46.92 497.14-2.14-4.75-43.68-25.7-82.89-39.95-123.78-120.23-377.27-203.86-768.98-215.69-1165.63-6.89-62.12-4.94-124.8-3.45-187.11 8.2-66.31 2.33-133.37 10.62-199.58 12.38-166.52 34.64-332.66 72.64-495.37 54.02-261.23 138.86-515.76 246.89-759.59 139.23-312.55 323.91-603.77 539.97-868.82 34.75-48.15 80.75-86.33 117.35-132.9 31.01-37.44 66.78-70.59 100.86-105.14 78.6-77.02 153.76-158.14 240.65-226.13 75.63-63.8 153.85-124.42 233.48-183.1 131.31-88.28 262.54-177.51 403.54-249.87 375.6-197.07 786.5-332.75 1209.6-375.03 149.85-20.12 301-21.61 451.88-22.17 45.54-59.6 99.27-113.07 160.56-156.46 112.96-89.6 245.68-149.95 381.37-196.14zm-74.04 208.16c-90.05 44.42-179.47 94.71-250.16 167.17-64.72 60.54-108.12 139.98-140.62 221.56-8.38 21.32-12.95 43.77-15.19 66.49 7.55-9.4 15.09-18.81 22.45-28.41 44.98-32.87 84.28-73.1 131.97-102.35 166.8-110.27 372.8-151.24 570.43-137.74 53.84 2.61 106.64 15.73 160.66 16.58 36.23 10.8 72.18 22.72 108.12 34.45-119.77 29.33-234.03 76.65-348.4 121.91-107.3 49.09-217.09 93.41-330.25 127.03 126.56 16.76 248.94 57.37 367.68 103.57 103.84 42.38 199.76 101.14 292.07 164.38-9.97-84.01-20.96-168.29-43.03-250.16 33.15 48.25 63.05 98.73 83.26 153.86 21.05 52.34 25.43 109.15 42.28 162.42 34.65 32.59 70.96 63.51 105.06 96.95 43.3-48.79 89.68-97.23 115.57-158.13 50.76-115.95 66.49-243.26 74.6-368.52-.38-87.36 7.82-177.32-15.74-262.35-2.51-55.13-15.18-109.43-29.99-162.42-8.29-22.26-15.93-53.19-44.05-56.53-284.99-64.91-591.85-34.55-856.72 90.25zM3301.99 665.79c-294.2 34.83-580.4 124.43-847.22 252.2-286.2 136.16-557.02 307.24-795.25 517.08-108.78 99-213.83 202.19-312.37 311.43-285.36 322.89-513.9 695.97-673.99 1096.07-122.28 319.53-201.45 655.92-230.97 996.97-8.47 83.91-5.49 168.39-10.62 252.48 4.01 65.37 3.46 130.85 5.78 196.23 23 342.25 90.99 680.97 195.2 1007.68 24.12 73.85 47.13 148.64 81.4 218.67 35.57-2.04 71.34-2.78 107.01-2.13-111.67-279.12-188.68-571.46-240.75-867.24 3.91-48.25-9.4-95.18-14.81-142.77-86.33-664.96 46.01-1351.9 351.48-1947.1 103.84-191.76 216.25-379.89 351.94-551.06 8.38-11.83 14.53-25.15 20.3-38.37 161.21-196.98 336.39-383.52 535.98-542.31 188.22-155.06 397.95-281.82 615.87-390.5 178.54-92.01 368.34-159.53 557.77-225.1 179.65-59.14 360.52-115.57 545.56-155.44 23.75-3.82 48.05-4.47 71.44-10.99-104.59 7.92-209.55 13.05-313.77 24.21zm448.99 178.44c-16.96 5.87-25.34 25.52-42.48 30.45-292.52.1-573.78 128.53-794.68 315.07-237.86 200.7-423.85 459.23-550.69 742.63-97.78 215.32-169.69 442.37-213.65 674.74-21.79 108.78-22.34 220.35-16.95 330.71 12.11 121.07 48.34 239.44 106.36 346.45 23.66 47.31 61.19 85.4 93.13 127.13-48.24-69.48-78.89-148.46-104.21-228.55-18.35-114.83-32.51-232.54-11.27-348.03 7.63-75.91 28.21-149.66 46.75-223.15 9.87 33.06 5.77 67.71 8.38 101.7 13.5 162.61 64.63 319.91 132.62 467.43 15.65 32.13 36.61 61.19 56.72 90.52-27.76-115.57-49.46-233.48-49.91-352.78-3.36-111.67 8.57-222.87 23.56-333.33 14.16-95.83 40.69-189.14 61.66-283.59 30.36-131.97 76.64-260.11 137.64-380.99 19.56-27.47 39.68-56.44 70.14-72.74-8.57 17.51-19.47 33.71-31.02 49.46-36.41 65.19-57.74 137.47-81.2 207.96-8.48 36.69-26.55 73.02-27.39 110.27-25.05 71.33-37.16 146.59-53.09 220.35-56.99 214.67-70.22 442.28-26.91 660.77 24.21-36.69 30.55-80.84 40.23-122.84 0 30.55-2.33 61.09-1.95 91.64-2.42 112.6-5.78 225.94 10.98 337.7 30.65 198.37 66.59 402.14 169.69 577.7-5.96-43.78-14.54-87.17-19.47-131.04-1.49-11.73.65-22.82 6.44-33.25 4.27 9.5 8.65 18.99 13.31 28.5l4.85 1.3c9.97 38.93 31.01 73.57 47.59 109.99 33.34 72.45 73.77 141.74 120.7 206.29 90.15 119.58 192.22 237.48 329.97 303.14-22.17-24.49-41.82-50.94-63.61-75.62-39.21-42.85-62.4-97.42-102.35-139.71-25.43-26.54-41.26-61.83-69.94-84.93-1.03-12.85-2.14-25.89-7.92-37.53 37.72 39.49 76.45 80.56 125.81 105.61-12.1-54.76-46.28-100.86-64.17-153.58-69.94-181.69-107.29-374.66-126.47-568-3.9-39.03 2.99-79.72-7.82-117.72 1.3-4 4-12.01 5.4-16.02 25.7 39.02 58.01 74.31 99.27 97.32-16.3-44.04-40.32-84.65-57.55-128.33-17.7-47.31-65.01-71.24-95.65-108.49-33.43-39.49-66.04-80.19-90.15-126.1-12.48-23.84-26.35-47.12-45.64-66.12-18.62-52.151-44.88-101.611-56.81-155.991 41.07 66.86 81.95 133.92 130.11 195.95 34.37 43.769 62.96 93.779 107.75 127.869 2.89-49.08-1.49-98.07-7.17-146.77-4.95-114.73-3.45-229.66-.28-344.49 8.2-108.59 25.05-216.34 49.17-322.52 29.25 43.59 4.56 99.28 14.81 148.08-2.98 28.41-5.4 56.9-7.55 85.41 24.58-13.88 58.58-20.21 70.87-48.62 71.8-180.021 159.25-354.081 265.7-516.041 24.86-37.531 62.86-71.061 64.72-119.111 7.46-79.911 31.11-156.831 54.76-233.111-38.74 266.539-61.46 540.439-9.59 806.809 10.43 14.059 33.06 4.279 48.52 7.349-2.42-38.74-5.59-77.39-11.18-115.77-8.2-132.99-3.26-267.19 21.79-398.32 21.05-108.961 41.07-218.391 70.41-325.401-52.61 276.509-44.98 561.119-16.3 840.139-1.02 28.59 32.97 23.94 52.44 28.31-16.48-109.9-23.38-221.37-18.99-332.48 13.12 46.01 18.81 93.7 31.94 139.79 28.41 120.42 74.78 235.44 119.48 350.45 48.24 105.89 111.67 207.97 199.68 285.46-23.38-71.991-62.77-139.051-74.41-214.861 64.63 127.879 153.57 242.609 255.92 342.549 6.89-150.031 57.74-292.441 95.65-436.231-34.28 51.599-70.22 102.169-110.64 149.099 26.64-60.81 68.18-113.71 94.53-174.71 65.1-132.62 85.12-280.7 121.16-422.63 18.62-85.491 47.4-170.251 46.48-258.631l-.65-10.341c36.23 114.179 29.33 235.899 37.43 354.089-4 69.94-6.24 140.07-6.14 210.1 12.67-2.89 25.33-5.87 38-8.85 13.13-85.22 25.8-170.53 35.86-256.11 14.06-178.44 21.14-359.95-11.46-536.91-19.93-92.85-39.67-188.12-88.38-270.91-74.04-129.83-167.54-247.36-266.26-359.03 70.5 33.62 126.66 90.62 179.37 146.96 65.37 85.41 134.29 171 176.49 270.92 42.1 117.44 44.42 243.73 55.32 366.57-.37 33.8 31.57 53.18 47.4 79.81 109.24 168.66 193.72 351.66 279.3 533.08 12.85 26.27 21.42 55.51 40.14 78.6 31.39 19.28 66.31 32.22 98.82 49.64 1.96-61.29-6.81-122.09-5.77-183.28 1.11-74.69-12.48-148.46-11.93-223.15 33.34 118.74 59.6 240 69.47 363.13 3.08 32.13 9.69 63.79 15.28 95.55-4.1 132.71 3.91 265.61-2.41 398.32-4.38 33.99-7.55 68.27-5.32 102.63 10.34-6.34 18.54-14.72 24.68-25.15 132.16-239.63 238.98-500.4 254.72-776.54 6.98 156.19-9.32 313.4-53.64 463.62-15.56 72.36-47.97 139.23-71.25 209.08-60.99 88.01-114.17 181.79-184.67 262.81-32.78 51.97-61.94 106.63-88.57 161.96 36.24-22.17 67.81-50.85 99.57-78.89 1.39 4.1 4.37 12.2 5.77 16.21-5.77 14.71-3.82 30.92-4.85 46.38-1.11 77.49-17.5 153.75-29.99 230.03-38.84 189.34-88.56 378.86-178.53 551.06 26.35-15.46 52.24-31.85 75.9-51.32 34.18-27.76 60.72-64.26 98.63-87.54-25.53 21.97-41.07 52.24-61.47 78.51-72.45 94.52-141.56 191.76-219.51 281.91 38-18.54 71.43-44.62 104.58-70.5 140.54-113.24 257.14-257.05 333.04-421.14 24.78-54.85 60.25-104.77 77.2-162.98 2.71 6.61 8.2 19.74 10.89 26.27-9.59 48.24-18.62 96.66-25.89 145.38 69.02-122.47 112.13-257.7 140.91-394.7 19.28-96.58 46.84-192.4 48.61-291.5 10.99-26.91 9.22-56.9 12.95-85.3 5.4-127.22 5.4-254.62 2.14-381.84 11.36 42.84 22.63 85.67 36.51 127.87 9.12 25.89 7.82 56.53 26.45 78.42 5.12-84.11 16.1-168.57 6.51-252.76-8.38-153.85-36.6-306.13-73.57-455.6-34.83-150.97-83.36-298.86-143.04-441.82-7.64-23.56-16.76-46.57-24.49-70.13 17.59 32.68 32.4 66.86 53.26 97.7l-2.33 5.77c67.15 124.98 107.94 261.89 154.42 395.43 46.85 161.86 78.42 328.29 93.41 496.11 12.2 143.79-18.63 286.66-61.29 423.2 36.04-38.18 55.41-87.92 78.6-134.12 71.99-163.72 103.75-343.84 99.47-522.27-1.4-16.68 2.51-32.88 6.98-48.8 2.05 35.57 16.3 69.02 24.49 103.47 34.37 115.02 47.22 235.81 42 355.67-4.19 141.56-51.22 279.86-125.82 399.63 78.97-81.12 125.92-187.1 160.19-293.46 27.66-85.3 23.38-175.82 22.64-264.21.65-103.56-24.96-204.7-48.25-304.82-24.86-84.75-54.57-168.01-81.39-252.01-3.63-35.57-17.23-68.91-28.22-102.63-13.04-39.02-22.44-79.81-43.67-115.47-14.07-55.14-38.75-106.64-60.26-159.17-97.97-241.02-238.23-466.68-423.56-650.43-145.66-149.57-330.15-256.95-524.81-329.59-144.07-49.17-292.52-89.31-444.6-101.71-108.13-2.79-219.32-10.33-323.44 25.15zm1403.86 378.86c-6.98 9.5-24.67 16.86-18.81 31.2 22.64 16.95 38.37 40.98 59.13 59.88 29.63-4.75 54.76-23.19 82.62-33.34 106.45-42.55 221.56-63.8 336.21-61.84-25.8 7.18-51.32 15.28-75.82 25.8-86.14 35.77-174.8 67.06-254.98 115.3-9.78.65-19.19 3.63-28.41 6.34 93.78.92 179.55 40.51 262.91 78.78-81.21-5.02-160.19-30.17-241.58-31.56 12.67 44.42 55.13 76.27 99.37 85.12 71.52 15.93 144.45 25.15 217.27 32.59 85.5 9.13 172.67-6.14 252.3-37.81 43.03-17.5 87.36-52.34 88.66-102.82 2.89-53.55-3.26-120.51-47.68-155.53-129.82-114.28-308.54-166.8-479.9-154.79-100.58 8.28-182.54 74.22-251.27 142.67zm-2967.26 154.05c-25.15 36.13-70.59 45.63-104.68 70.31 31.11 17.88 68.45 26.27 93.22 53.83 24.96 23.38 34.18 57.37 48.05 87.54 22.27-20.11 26.36-52.24 44.8-75.25 21.42-30.27 57.64-42.75 88.1-61.19.65-2.88 1.87-8.57 2.52-11.46-28.78-14.16-61.47-24.3-82.61-49.82-22.64-27.85-31.2-63.43-46.2-95.28-15.46 26.55-26.45 55.51-43.22 81.31zm3866.36 40.14c-5.5 31.94-11.83 63.7-19.19 95.27-5.31 17.22 15.84 24.58 24.96 35.49 39.86 31.56 73.02 70.03 106.17 108.21 85.31 38.75 167.73 84.1 245.87 135.79 37.06 24.03 66.12 57.37 98.9 86.42 54.21 44.52 98.45 101.61 162.42 133.37-19.83-36.79-54.75-61.29-83.63-90.15-52.99-52.81-113.34-97.61-165.31-151.52-58.39-59.51-113.8-122.01-172.57-181.14-64.63-58.59-125.63-122.1-197.62-171.74zm-677.07 167.45c113.16 194.83 205.73 402.42 266.17 619.79 8.1 24.31 13.88 54.48 40.7 65.29 161.3 85.59 320.27 175.65 480.27 263.84 65.19 40.04 130.85 79.53 193.99 122.84-27.75-46.01-62.49-87.08-92.48-131.51-27.38-38.37-48.8-80.83-79.34-116.88-59.61-105.24-135.32-201.08-190.09-309.1 147.62-81.12 302.96-159.45 472.09-180.87-63.51-34.55-124.61-73.85-191.29-102.07-83.91-35.02-169.88-65.1-257.69-88.39-74.51-20.39-147.06-47.49-221.84-66.49-68.64-30.92-136.62-64.91-208.9-86.52-70.22-9.69-142.21-2.33-211.59 10.07zm-914.83 403.07c.47 133.17 7.92 267.1-10.81 399.44-5.86 47.97-17.32 95.27-19.83 143.7 63.8-.55 128.52-4.74 191.48 8.29 44.88 7.92 87.36 25.15 131.87 35.11-97.78-195.38-199.48-388.92-292.71-586.54zm2027.67 34.92c132.9 157.68 238.97 335.64 338.72 515.58 293.73 550.78 452.25 1179.98 411.64 1805.36-14.81 339.46-91.36 673.61-194.83 996.42-17.14 57.93-45.27 112.12-59.23 171.08 32.96.74 66.12-1.12 99.27.84 9.5-6.89 18.44-14.99 22.26-26.55 30.18-69.29 49.37-142.58 71.62-214.67 43.49-144.63 78.6-291.69 109.43-439.48 33.9-191.76 63.05-385.66 61.29-580.96 3.16-107.66-.28-215.32-3.73-322.88-13.5-125.82-21.52-252.48-46.48-376.72-1.58-10.44-5.96-19.56-13.12-27.2l-1.3-7.08c4.65-36.23-6.61-71.24-14.81-105.98-81.77-380.45-234.23-743.75-431.76-1078.18a105.586 105.586 0 0 0-29.99-36.42c-48.43-79.71-100.21-157.67-156.19-232.27-16.48-17.97-30.82-41.06-53.73-50.65-36.32 4.1-72.55 8.19-109.06 9.77zM3272.48 2180.2c-71.62 132.06-144.91 263.84-203.96 402.05 61.19-16.38 121.17-37.8 184.22-46.94 27.38.55 54.95 0 81.86-5.69-28.13-129.73-25.33-263.18-28.03-395.16-15.36 12.02-26.27 28.13-34.08 45.73zm-1698.26 13.32c-28.96 42.48-61.46 82.61-96.11 120.61 9.78 15.83 21.8 30.07 35.2 43.02 39.87-31.02 68.36-73.02 100.02-111.67 21.52-23.66-18.91-46.1-39.12-51.97zm2692.72 268.41c-6.06 40.51-20.11 79.53-21.89 120.6 16.02-11.92 42.28-21.79 38.37-46.47-.18-52.81 0-105.71-1.39-158.51-7.46 27.66-10.15 56.25-15.09 84.38zm-2877.49-30.55c-146.87 224.73-256.2 473.49-328.01 732.02-7.54 30.45-18.34 60.63-17.97 92.39 24.21.74 49.08 2.98 72.46-4.94 16.29-91.74 46.94-180.12 78.88-267.39 69.76-189.62 161.58-370.48 269.33-541.18-15.65-13.88-31.29-27.76-46.57-42.01-10.61 9.13-20.86 18.91-28.13 31.11zm1662.59 208.99c-36.69 54.38-52.25 121.44-77.95 181.98-15.93 50.48-40.14 98.15-52.99 149.57 43.87-48.52 90.71-96.02 148.45-127.87 33.06-19.37 68.36-34.08 103-50.01-9.12-11.27-19.09-21.89-28.68-32.69 26.91-1.67 50.11 10.89 73.02 23.29 43.87-3.45 87.91-5.87 131.5-12.58-15.36-8.65-31.01-16.2-46.65-24.03 30.54-.28 61.09.1 91.64-.65 1.67 12.67 3.16 25.43 4.1 38.18 32.87 8.85 64.62 21.23 97.97 28.51-39.02-29.63-82.05-60.26-100.12-107.85-18.62-38.47-32.5-80.46-57.64-114.93-96.58 5.87-193.07 21.15-285.63 49.09zm343.28-47.03c24.41 58.86 44.05 123.67 92.58 167.91-12.1-55.13-33.53-107.75-45.63-162.97-15.74-1.86-31.39-3.54-46.94-4.94zm1019.52 2.23c-36.04 125.73-105.71 238.7-188.5 339.09 21.89-103.27 43.77-207.49 49.64-313.11-12.2 4.57-24.78 8.48-35.77 15.46-12.2 16.11-16.11 36.51-21.79 55.41-28.13 108.78-60.91 216.26-89.03 325.03-17.42 68.27-18.54 139.04-28.88 208.33-56.25-27.29-104.21-67.98-154.79-104.02-60.91-43.59-116.59-94.07-167.35-149.1-68.92-78.89-114.93-173.97-159.81-267.76 28.4 90.89 62.11 180.58 101.79 267.29-39.11-41.81-79.06-84.38-104.02-136.53-34.08-65-52.9-136.25-70.69-207.04-11.45-4.94-22.91-9.77-34.27-14.53 1.02 83.44 40.04 158.5 68.55 234.88-6.89 1.49-20.78 4.57-27.67 6.06 27.57 41.16 72.93 72.27 82.7 123.58-12.85-4.28-25.7-8.76-38.37-13.23 11.18 33.44 19.74 67.61 28.96 101.61-14.91-11.26-29.33-23.09-43.4-35.39 3.26 86.7 3.45 181.24-51.03 254.06-4.65-50.28 28.41-94.71 25.05-144.53-12.95-11.93-25.33-24.31-37.62-36.69.55-13.88.65-27.67 1.11-41.36-5.87-5.86-11.64-11.73-17.22-17.69-21.98-1.67-44.43-4.66-66.12.28-21.7 8.94-20.31 33.8-22.27 53.36 8.48 17.42 28.78 37.25 15.37 57.09-9.32 20.95-27.02 44.98-53.37 38.55-32.5-16.02-42-54.76-65.37-79.9-19.93-13.79-42.84-22.35-65.29-30.93 43.77-14.71 76.09-49.54 91.27-92.66-26.64-18.719-57.74-29.049-86.52-43.769 14.53-17.689 28.5-35.939 40.88-55.219-84.56 17.691-165.68 63.971-218.49 133.361-38.65 50.571-49.17 126.761-15.46 182.261 3.08 12.201 6.52 24.311 9.4 36.691-50.57-33.999-82.79-86.609-122.93-131.029-9.69 116.131 37.63 227.051 84.29 330.801 30.07 67.341 76.37 127.591 139.88 166.431-57.56 3.081-111.3-22.719-165.03-39.859 3.82 14.53 7.82 29.06 13.41 43.22 66.22 154.04 159.72 300.72 293.64 404.46 119.03 87.36 254.34 148.08 387.71 209.65 63.8 30.36 128.8 58.58 195.85 80.93 34.83 11.92 70.97.37 103.94-11.74 89.41-33.34 176.58-72.55 263.19-112.69 141.19-68.73 289.74-135.5 395.54-255.83 87.54-101.14 152.63-221.93 194.08-348.78-51.31 14.06-101.13 36.6-155.24 36.69 63.23-42.85 113.99-102.72 145.75-172.29 50.48-105.61 97.78-220.44 86.33-339.94-32.03 54.3-70.87 106.55-124.89 140.82 5.87-16.11 13.32-31.57 19.93-47.4 24.96-67.7 5.5-148.08-47.59-196.78-44.98-51.69-108.41-79.63-168.84-108.41 41.53 39.58 83.07 83.73 97.88 140.82 4.47 36.98-.38 74.41 5.68 111.29-7.73 68.65-39.11 132.72-85.12 183.75-17.51 16.21-40.61 27.02-51.97 49.09 27.29 1.301 54.67-1.019 81.95.371-43.4 15.831-90.05 28.781-136.53 26.541 14.35-7.079 29.34-12.849 44.34-18.339 1.76-4.569 5.31-13.499 7.08-18.069-55.88 11.551-122.75 21.521-168.29-21.699-40.32-41.439-81.87-88.009-92.86-146.769-13.22-58.019-10.06-117.909-18.25-176.489-8.85 16.391-17.22 34.001-34.82 42.751 1.86-35.569 17.6-68.269 23.65-102.999-15.92 9.401-30.82 20.401-46.57 30.081 43.68-105.809 142.96-183.379 252.11-213.549-9.69-6.989-19.37-13.789-28.78-20.959 31.94-17.789 69.29-12.849 104.21-11.079-15.46 9.221-31.01 18.161-46.57 27.191 40.52 3.451 81.03 6.521 121.45 11.461 13.87 1.671 24.86-9.499 36.97-14.439 18.91-11.929 42.1-9.129 63.33-10.809-10.99 12.111-22.16 24.121-32.78 36.511 90.061 42.561 170.531 102.721 238.981 175.001-37.999-96.949-89.689-187.949-133.179-282.569-12.75-22.54-23.28-53.64-52.06-59.05-58.96-14.06-118.56-25.98-178.63-33.7-53.83-1.87-108.5-14.25-161.86-1.5h.001zm-82.52 11.18c-13.69 56.72-16.3 115.48-32.41 171.74 27.85-56.07 47.87-115.48 61.84-176.49-9.87 1.59-19.65 3.17-29.43 4.75zm527.59 50.39c21.61 45.08 39.95 92.1 68.73 133.36.56-31.39 1.12-63.23-5.4-94.07-9.69-25.79-39.48-32.96-63.33-39.29zm-1927.08 131.31c11.55-40.24 27.84-79.54 32.22-121.44-42.56 25.98-34.08 79.16-32.22 121.44zm3603.82 6.7c26.35 74.14 73.02 139.14 99.94 213.28 17.87-5.77 35.2-13.42 51.87-22.26-29.99-80.19-70.96-155.44-108.59-232.09-14.72 11.73-52.72 15.18-43.22 41.06zM4343.68 3061.6c20.49 9.97 43.12 12.76 65.38 16.68-10.62 10.06-23.01 17.69-35.86 24.49 13.59-.85 27.19-1.22 40.88-1.59 5.87 5.02 11.93 10.06 18.07 14.99-41.63-26.82-90.42 6.52-109.15 45.08-4.01 39.77 14.43 77.49 32.59 111.67 16.76 34.08 46.38 58.3 76.65 80 35.02 22.91 79.53 19.66 116.88 4.28 33.53-14.25 73.3-25.98 91.27-60.82 28.31-49.45 52.25-111.66 25.7-166.79-10.52-23.57-38.37-26.27-59.88-33.44 15.84-21.42 43.31-15.65 64.08-5.49-2.79-11.08-5.31-22.27-7.73-33.43-29.9-10.81-69.02-25.61-95.92-.93-11.18 35.3-9.6 72.65-14.16 109.06-17.14 26.07-50.39 30.27-79.17 29.99-34.92-29.52-30.54-80.83-62.3-111.85 4.47-5.4 9.12-10.71 13.79-15.92 26.54-21.05 65.65-45.36 63.51-83.45-12.95-19.09-36.89-11.45-56.07-14.99-11.56-8.28-21.23-18.72-31.67-28.13-47.31 13.5-94.34 76.28-56.9 120.6zm-2649.69-101.98c-7.35 14.44-9.77 30.46-8.47 46.66 15.28 4.75 31.01 4.85 46.38 0 .28-12.01 1.58-24.12-.37-35.95-8.29-12.85-24.78-8.47-37.54-10.71zm-292.99 5.87c-28.13 86.42-34.37 181.51-84.18 259.83-51.69 70.41-140.73 96.58-222.4 112.88-17.98 1.02-26.45 18.25-37.35 29.89-16.58.47-33.06.47-49.55 1.3-14.99 83.54-35.66 166.71-39.02 251.74 21.33.18 42.56.18 63.89 1.11 13.78-21.14 11.55-47.03 15.92-70.78 6.99-64.63 22.35-127.96 33.34-192.03 73.1 7.82 149.29 25.23 208.34 71.43 77.49 63.51 86.05 170.53 113.71 260.21 22.91-82.52 25.7-178.35 90.15-242.33 59.33-64.08 149.1-78.05 228.64-101.71-77.68-27.19-168.67-39.02-224.92-105.8-63.79-78.23-62.86-184.67-96.58-275.76zm4670 87.45c-21.43 42-30.28 96.11-75.63 120.23-27.57 20.48-67.99 22.16-88.85 50.65 39.29 16.11 83.07 27.47 113.53 59.14 28.13 28.87 33.06 70.87 53.64 104.4 14.71-35.2 27.66-72.65 54.3-100.96 30.27-33.63 75.06-46.85 113.62-68.18-38.93-18.06-84.38-28.21-113.62-62.03-26.73-27.93-34.46-66.96-48.24-101.7-2.14-.47-6.62-1.21-8.75-1.58zm678.65 264.4c29.7 113.34 59.79 226.59 80.65 341.98 20.68-4.28 41.54-8.38 62.59-11.64-11.83-117.91-45.08-232.46-77.68-346.08-23-.55-44.79 6.8-65.56 15.74zm-1350.32 73.85c-.09 4.65-.27 13.87-.37 18.53-15.65 34.93-13.04 74.23-22.54 110.83-24.68 109.16-46 219.7-86.61 324.38-31.2 82.89-62.12 167.54-114.93 239.63-16.95 25.05-40.88 48.89-40.04 81.39-3.91 150.69-45.54 296.25-78.89 442.1-9.4 35.48-21.52 70.22-30.27 105.98 105.71 32.59 207.12 78.89 314.88 104.21 48.62 26.73 102.91 42.66 156.65 56.07 1.3-84.75-23.18-167.26-23.28-251.92 34.08 89.78 64.45 180.95 88.38 274 34 19.09 81.03 17.13 104.31 52.71 46.38 61.66 82.89 130.11 115.77 199.76 38.18 91.27 66.41 186.64 107.57 276.61 11.26 28.21 14.44 70.78 44.61 83.07 4.94-104.49-5.49-209.36-33.34-310.22-44.61-163.82-108.12-321.49-170.8-478.88-6.98-47.78-28.68-91.46-41.07-137.74-8.28-30.83-17.22-61.84-32.87-89.78-52.62-187.11-84.19-379.14-128.34-568.1 18.54 40.78 36.32 81.95 53 123.67 135.5 349.71 376.99 644.01 534.57 982.82 50.11 107.94 87.08 229.19 63.14 348.68-9.87 51.13-40.69 93.32-65.75 137.65 21.61-2.42 41.73-12.01 56.9-27.66 38.93-39.12 63.8-93.51 62.77-149.11 4.28-85.22-12.95-169.5-35.67-251.08-58.68-195.01-158.97-373.74-259.46-549.57-89.6-160.56-188.5-315.62-277.63-476.46-123.87-207.78-189.89-442.19-260.68-671.57zm-2939.88 29.7c-9.78 32.97-22.27 66.32-22.64 101.14-41.35 156.37-89.78 310.78-135.88 465.76-55.88 194.83-117.44 388.35-196.13 575.36-77.58 189.62-170.53 375.41-215.51 576.3l-4.57 1.4c-25.61 121.72-51.5 251.55-15.83 373.83 10.52-.37 21.05-.65 31.66-.93 58.39-166.23 101.43-341.97 201.35-489.78 18.72-27.1 34.74-56.62 58.39-79.81 37.16-29.99 90.9-28.31 127.78-58.48 24.4-74.52 41.35-152.74 74.96-223.7 9.03 70.68-10.06 140.72-9.68 211.41 34.37-10.52 69.1-20.58 101.98-35.12 61.28-16.95 122-36.23 181.6-58.48 67.81-24.49 138.49-41.26 204.06-71.81-15.46-70.5-41.81-138.11-58.21-208.43-25.7-112.87-59.98-225.28-62.68-341.88-1.39-45.08-46.28-70.59-63.7-109.15-59.05-104.96-103.47-217.56-131.69-334.53-32.41-95.27-30.92-198.65-65.28-293.09zm3984.83 396c-68.36 59.97-161.12 76.74-246.99 96.11 18.07 15.28 43.68 13.41 65.75 18.34 71.61 12.76 149.75 34.28 196.13 94.81 53.09 69.38 63.43 159.71 82.61 242.42 21.7-79.71 32.88-164.09 75.26-236.55 13.69-20.95 34.82-35.2 54.85-49.64-26.54 24.5-58.76 47.13-68.27 84.01-5.31 201.35-28.13 402.98-76.55 599.03-43.4 172.48-94.72 344.4-173.22 504.67-5.77 14.62-16.58 29.06-14.25 45.64 20.03 22.64 48.71 34.55 74.42 49.46 13.04-17.23 24.21-35.67 32.87-55.41 134.86-296.07 221.38-615.7 242.61-940.82 12.3-99.94 2.33-200.89 6.61-301.29 58.39-24.4 120.61-36.32 181.42-52.99-83.16-30.92-184.12-35.3-244.75-108.5-54.3-77.3-55.69-175.74-85.87-262.53-33.06 91.08-35.76 197.62-102.62 273.25zm-4581.16 112.69c-29.24 33.71-72.35 48.05-112.12 65.09-6.34 12.48 10.06 12.48 17.5 16.86 30.64 11.26 62.03 23.84 85.68 47.22 34.18 33.34 51.5 79.06 65.19 123.87 3.73-.56 11.27-1.49 15.09-2.05 8.66-28.21 17.33-56.81 32.22-82.51 28.22-44.52 74.51-73.95 123.68-90.53 14.06-2.79 3.73-20.11-6.89-19.28-30.08-12.1-63.05-20.95-86.33-44.89-37.25-34.08-45.16-86.52-65.37-130.56-31.67 33.43-34.09 85.12-68.65 116.79zm-938.95 13.22c-.75 49.73-1.59 99.56.84 149.29 8.47 72.92 1.77 147.24 18.34 219.23 18.07-.65 36.14-1.3 54.21-1.77 3.63-38.27.84-76.64-.84-114.83-5.12-97.04-3.08-194.27-2.14-291.4-19.56-.18-39.02-1.3-58.49.1-14.16 6.88-9.49 26.54-11.92 39.39zm286.84 137.92c2.89 209.65 34.28 418.54 85.13 621.84 45.83 168.29 98.72 335.65 174.53 493.14 45.36 97.04 97.13 192.13 164.84 275.57 20.21-15.73 71.9-18.62 60.54-53.08-235.53-408.11-362.84-874.42-391.99-1343.43-31.11.37-62.4.56-93.04 5.96zm1589.94 95.93c-1.21 33.62-1.49 67.42 1.77 100.95 15.09 141.84 45.73 281.35 82.89 418.91 24.03-2.14 47.03-9.69 65.19-26.08-21.23-72.18-45.54-143.33-63.98-216.25-21.97-91.55-25.98-187.95-63.23-275.4-5.59-.55-16.95-1.58-22.64-2.13zm2212.53 91.64c-19.74 109.7-36.98 220.06-64.54 328.2-5.59 26.26-20.58 50.85-21.8 77.76 12.01 19.93 38.28 19.66 58.76 22.73 30-121.92 51.88-245.77 68.65-370.2 3.72-49.46 12.67-100.86-1.87-149.38-25.6 23.38-32.41 58.49-39.21 90.9zM3958.3 4581.48c-31.57 21.05-65.29-5.86-94.35-18.53-104.21-59.98-202.19-131.41-290.2-213.36-3.63 34.92-9.5 70.5-3.82 105.51 14.34 33.43 41.91 58.31 65.84 84.94 99.19 102.44 201.08 202.74 308.55 296.71 91.83-97.41 190.83-187.75 279.96-287.68 25.89-29.43 59.05-53.84 76.37-89.78 6.98-36.98-.28-74.97-1.02-112.32-105.24 89.5-218.68 170.62-341.33 234.5zm378.39-218.11c5.12 31.66 38.47 51.12 41.26 82.42-37.63 50.66-83.26 94.52-123.87 142.67-64.73 74.6-140.54 139.98-199.39 219.32-49.36 42.47-82.52 100.59-109.16 159.17 24.03-19.47 44.52-43.31 71.62-58.86 41.53 42.84 67.15 97.33 100.68 146.03 27.56 40.51 55.87 80.46 84.18 120.42 37.91 56.99 74.04 115.94 122.38 164.84 20.68-43.68 46.38-84.48 69.02-127.13 43.67-73.85 76.45-153.39 114.55-230.13 6.43-16.86 18.25-33.06 17.69-51.6-14.06-113.61-42.18-224.81-71.7-335.18-17.6-58.58-34.83-117.81-63.14-172.2-5.87-28.31-30.55-46.47-54.11-59.79zm-866.12 83.73c-45.45 146.77-93.13 293.92-116.23 446.29-2.33 30.54-12.01 63.88 3.17 92.66 58.58 124.89 126.28 245.31 199.3 362.38 22.17-50.86 57.93-93.7 89.5-138.67 70.87-94.81 133.92-195.12 203.49-290.85 12.2-21.52 43.59-53.64 11.55-73.02-23.38-35.12-56.34-62.03-85.22-92.29-62.68-64.63-128.05-126.76-187.1-194.74-33.15-37.44-71.43-70.87-98.25-113.25-7.64-27.09 20.58-43.67 32.5-64.62-34.74.84-43.86 39.3-52.71 66.12zm-2624.08-41.91c33.7 362.38 124.7 720.93 278.74 1051.18 9.59 18.62 17.6 39.3 33.43 53.73 34.65.75 69.3-.92 103.65-5.12-30.08-78.79-74.04-151.52-101.98-231.15-83.44-204.61-141.93-418.9-180.86-636.28-13.69-80.55-30.82-161.3-30.92-243.35-34 1.49-70.5-4.94-102.07 10.99zm6041.82 148.36c-51.22 298.2-124.99 595.11-251.93 870.96-12.85 26.64-26.91 53.09-34.17 82.05 34.74-.84 69.57-.65 104.39-1.67 163.82-348.22 260.11-726.99 296.25-1109.48-30.17-1.02-60.35-.74-90.43-.74-12.47 52.24-14.34 106.17-24.11 158.88zm-3581 18.9c-13.51 20.22-21.15 44.24-18.07 68.65 6.51 75.16 9.22 150.96 24.21 225.1 12.57-110.83 23.38-223.42 61.66-329.03 10.24-26.64 20.95-53.09 28.5-80.65-38.55 32.88-68.27 74.22-96.29 115.94zm1177.64-89.77c11.18 48.71 32.88 94.53 40.69 144.16 12.02 73.2 22.73 146.77 29.9 220.63 9.78-10.06 8.11-25.05 10.25-37.72 6.14-60.44 14.34-121.91 4.84-182.35-16.76-53.84-48.89-102.45-85.68-144.73zm-1274.32 123.68c-124.62 99.74-213.83 233.85-316.55 354.27-70.69 95.47-146.22 187.75-214.02 285.08 72.55 50.01 151.89 88.85 227.71 133.46 59.32 32.5 118.18 66.86 181.42 91.54-45.08-48.52-109.99-70.59-164.47-106.36-61.66-40.78-129.08-72.64-187.75-118 38-72.73 90.05-136.53 138.01-202.74 77.4-104.87 162.06-203.96 246.99-302.68 40.98-52.07 92.2-96.77 123.96-155.54-12.39 5.97-24.41 12.58-35.3 20.96zm1414.2-21.33c52.82 87.17 126.57 158.88 189.99 238.04 46.94 58.86 94.63 116.97 139.79 177.14 58.39 78.41 122.56 153.2 170.62 238.78-116.41 83.07-249.49 141.38-361.26 231.16 69.48-19.84 127.41-65.47 192.41-95.55 72.08-42.28 148.18-78.42 216.07-127.69-5.78-14.99-12.95-29.42-22.64-42.18-54.95-72.45-111.38-143.7-163.54-218.12-39.67-56.07-85.68-107.19-126.19-162.52-42.28-59.13-94.9-109.8-145.2-161.95-28.21-27.66-53.93-59.42-90.06-77.12zm-1830.22 219.14c-188.97 62.12-375.41 132.06-566.15 188.6-32.59 16.57-44.33 55.87-67.8 82.23-94.15 127.88-128.52 286.76-168.1 437.45 33.34-1.68 66.59-1.87 99.94-.75 50.29-138.39 69.39-286.94 130.38-421.51 62.31-30.37 128.34-51.7 192.78-77.12 179.75-64.82 359.31-130.2 536.81-200.98 24.59-10.8 51.41-20.77 67.62-43.49 21.6-15.18 37.34-36.88 48.79-60.35-91.73 31.02-181.98 66.49-274.27 95.92zm1986.59-98.35c44.71 74.79 130.66 102.08 207.96 129.27 171.65 74.22 349.62 132.53 523.49 201.17 26.92 10.15 55.98 16.85 79.91 33.62 24.86 54.3 51.78 109.06 60.45 168.94 18.16 91.74 30.74 185.05 56.44 275.2 34.82-3.16 69.84-3.35 104.86-2.04-13.5-80.28-39.95-157.58-65.29-234.7-24.4-69.01-45.45-141-89.22-200.88-20.21-27.1-31.57-60.17-54.58-85.12-210.47-70.69-420.21-144.64-630.31-216.72-63.89-24.78-127.03-52.06-193.72-68.73zm-904.49 204.52c3.07 24.04 21.23 39.77 42.75 48.25-1.49-24.68-23.29-37.91-42.75-48.25zm-495.74 235.07c17.33 123.21 37.07 246.15 62.12 368.06 87.73-1.86 175.74 3.16 263.38-2.89 22.26-21.89 28.21-56.72 35.76-86.33.75-39.39-14.16-77.11-30.36-112.41-11.46-21.23-23.75-42-35.67-62.86-36.88 60.72-83.17 114.93-125.07 172.02-63.24-55.13-81.96-144.73-139.61-204.89-3.53-25.89-18.16-48.34-30.55-70.69zm959.35 268.22c-9.87-3.26-20.68-5.32-27.94-13.32-47.59-42.65-81.3-97.7-123.4-145.38-27.1 51.88-70.13 104.68-52.62 167.27 11.55 30.82 24.22 61.19 39.3 90.52 85.22-1.3 170.43-.27 255.65-.55 12.38-39.4 18.07-81.5 18.54-122.56a185.15 185.15 0 0 0 8.65-31.29c5.5-71.71 21.24-142.12 30.65-213.28-48.62 89.97-102.17 177.42-148.83 268.59zm-615.41-250.44c4.75 55.6 28.21 113.81 69.57 151.81-18.62-52.34-41.63-103.74-69.57-151.81zm410.62 9.88c-20.68 48.98-50.85 95.17-60.07 147.98 11.26-1.96 20.58-8.47 24.21-19.65 13.97-29.25 29.8-57.65 42.19-87.64 6.43-13.87 1.21-28.78-6.34-40.69zm-364.05 208.89-7.26-1.39c1.12 5.31 3.45 16.11 4.57 21.52 92.38-6.89 184.86-12.85 277.62-9.22 23.1-1.68 51.23 7.17 69.76-11.09l-8.65.65c-17.51-13.69-37.81-24.58-60.35-25.89-52.99-2.98-106.26-1.49-159.07 4.19-39.21 3.73-81.68-.65-116.6 21.23zM880.2 5745.92c53.27 175.92 118.56 348.31 176.58 522.94 61.28 188.96 131.97 374.58 193.9 563.35 60.16 169.51 116.97 340.39 183.75 507.57 103.84-5.4 208.05.74 311.99-3.73 22.45-22.64 27.39-55.97 39.21-84.38 97.61-261.05 197.16-521.45 292.62-783.33 26.55 58.96 47.87 119.96 70.87 180.3 72.36 200.14 144.82 400.19 219.61 599.4 10.81 29.15 22.54 58.21 28.13 88.94 43.22 10.24 87.82 3.35 131.6 4.94 66.59-1.22 133.37 3.63 199.68-4.1 48.89-132.53 95.27-265.99 142.02-399.35 117.63-344.58 241.21-687.21 352.41-1034.04 14.54-49.16 40.14-96.48 39.4-148.82l2.79-7.92c-118.09-.1-236.27-.93-354.28.18-3.35 1.77-10.06 5.21-13.41 6.98-120.7 341.98-230.13 687.96-350.18 1030.23-57.46-147.34-113.9-295.32-171.27-442.75-75.53-198.56-144.91-399.44-227.8-595.11-43.87.92-87.73-2.05-131.5.92-8.48 6.15-14.34 14.35-17.51 24.41-122.93 320.18-245.86 640.38-369.17 960.46-6.24 17.51-12.95 35.3-24.49 50.29-120.79-345.24-235.62-692.81-361.06-1036.47-121.27.56-242.61.65-363.88-.92zm2530.12.84c.27 114.55-2.79 229.19 1.86 343.66 176.57 1.59 353.25-2.04 529.73 1.86-1.86 415-.74 830-.92 1244.98 120.32-.92 240.64.56 360.98-.47 2.79-415.64-2.71-831.57 2.14-1247.12 200.33 1.58 400.65.46 600.98 1.39 4.38-113.81 2.33-227.99.28-341.88-199.31-4.28-398.79-.65-598.09-1.96-299.05.55-598-.38-896.95-.47zm1925.59 2.14c-1.21 375.98.37 751.85-.37 1127.83 1.39 153.76-3.45 307.7 2.23 461.28 117.54-2.79 235.16-.56 352.69-1.12 2.89-198.74 1.3-397.58.56-596.32 140.82-9.5 282-5.21 423.09-5.59 102.17 8.38 204.8 2.61 307.24 4.57 39.02-1.02 78.89 5.4 117.07-5.03 19.65-108.22 41.81-216.16 55.87-325.3-300.25-.28-600.6.74-900.86-.75-2.6-105.51-2.41-211.22-1.39-316.74 344.31-2.24 688.8.37 1033.21-1.87 7.26-36.5 16.1-73.01 17.97-110.27l7.73 1.3c6.98-48.89 22.35-97.6 17.32-147.43 8.85-27.84 12.11-57.09 11.83-86.15-481.39 1.77-962.98-2.98-1444.19 1.59zm1761.58 443.86c-3.9 21.15-7.08 42.38-8.94 63.89 54.01-.1 108.22 1.76 162.23-.56 19.56-14.44 10.71-43.02 15.84-64.07-56.45.84-112.79-.19-169.14.74zm-6649.88.1c.55 21.52 2.79 43.12 7.36 64.35 53.92-.1 107.84-.93 161.77-.28-2.98-20.58 3.45-45.16-8.2-62.95-53.64-2.15-107.29-.93-160.93-1.12zm42.28 176.57c4.28 25.23 9.96 50.2 16.48 74.97 45.64-1.02 91.27-1.67 136.9-2.42-.27-25.05-5.59-49.46-10.71-73.76-47.59-.65-95.17.74-142.67 1.21zm6567.37 74.79c49.45-.47 98.81-.18 148.26-1.03 5.31-23.28 10.34-46.47 14.16-69.94-49.08-7.26-98.9-3.63-148.26-4.19-6.34 24.68-11.09 49.73-14.16 75.16zm-35.3 193.43c-.93 16.31-1.86 32.69-2.41 49.09 27.84-.47 55.78-1.49 83.73-2.89 3.07-4.84 9.12-14.62 12.2-19.55l-4.28-12.3c-26.18-18.25-59.33-13.5-89.23-14.35zm-6416.58 47.41c29.52 1.77 59.05-.18 88.11-5.4-.19-9.03-.38-17.88-.56-26.73-21.79-23.65-58.58-7.26-86.89-10.71-.93 14.16-1.02 28.51-.65 42.85zm4243.75 1032.21c413.63 545.34-1469.42 573.72-1656.05 278.97 2.7-33.43 2.79-66.96 3.16-100.31 44.14-4.28 88.48-.74 132.8-1.77-.18-18.25-.47-36.51-.47-54.57-44.04-4.66-88.47-1.87-132.62-3.26-.91-93.67 47.86-52.91 153.3-59.05-1.12-3.51 35.1-31.22 85.35-68.32 109.77-81.01 286.52-206.83 287.62-223.3l1126.9 231.61zm-1265.45 30.63c1.12 95.09-56.91 160.99-50.39 255.89 20.77-4.28 46.75 4.94 64.35-7.55 2.05-91.64 117.18-278.11 117.09-369.83-22.45-3.91-161.05 89.14-183.68 92.02l52.63 29.47zm220.99-18.85c-1.02 90.34-1.67 180.95.75 271.29 79.81-.56 159.91 4.1 239.45-3.91 0-17.05.27-34 .74-50.85-55.6-1.77-111.2.37-166.8-.75-2.42-74.13-.47-148.45-2.51-222.58l-5.22-5.68c-21.42 1.67-55.04-12.2-66.41 12.48zm451.79-10.62c0 93.88.09 187.85 1.39 281.73 21.8 1.21 43.68 1.3 65.57 1.11 3.16-50.57-.75-101.23-.18-151.8 43.02 49.64 65.84 115.2 117.26 157.57 48.42-42.65 74.13-103.19 111.38-154.5 5.86 49.27-.85 99.19 6.05 148.55 20.68-1.3 41.36-3.07 62.12-4.28.74-91.83 1.12-183.65-1.12-275.29-26.17-1.12-64.54-15.93-79.44 14.44-31.19 57.46-70.78 110.27-99.09 169.31-42.65-61.47-79.91-126.47-120.6-189.15-21.15.28-42.28 1.02-63.33 2.33z" />
        <path class="fil0" d="M3582.49 1083.86c61.94-36.98 108.69-95.55 174.81-126.47 48.05 19.19 93.23 45.73 131.5 80.83-8.94 20.21-19.93 39.3-30.36 58.68-35.86-24.03-81.3-47.68-124.05-25.7-136.35 58.39-229.66 190.36-273.63 328.38 10.15-73.76 39.49-142.59 64.18-212.16-54.76.93-106.64 19.74-158.51 35.02 69.2-50.1 141.19-96.95 216.06-138.58z" />
        <path class="fil0" d="M4242.71 1083.11c104.31 43.13 208.61 95.65 287.49 178.16-91.54-66.21-190.45-120.79-287.49-178.16z" />
        <path class="fil0" d="M4586.45 1130.43c84.48 12.57 157.76 60.72 225.48 109.99 115.95 93.22 215.51 205.72 301 327.26 23.84 33.25 46.1 67.98 63.79 105.06-13.12-5.59-25.97-11.46-38.74-17.6-48.99-70.14-105.33-134.95-164.56-196.7-80.47-95.09-175.46-176.77-276.98-248.57-36.32-27.01-73.85-52.25-109.99-79.44z" />
        <path class="fil0" d="M3011.7 1306.16c64.44-48.89 130.29-97.88 206.1-127.78-121.35 83.73-237.12 177.89-330.43 292.62-50.66 55.6-91.83 118.74-137.55 178.16-64.45 76.65-102.73 169.69-151.72 255.93-14.9 26.92-27.47 55.04-41.9 82.24 6.24-62.12 33.33-119.03 57.93-175.55 39.67-87.27 98.07-163.92 150.22-243.82 76.28-92.76 152.64-186.91 247.36-261.8z" />
        <path class="fil0" d="M2961.87 1735.87c82.98-141.93 180.86-282.56 320.18-374.48-129.54 128.52-230.13 282.93-313.49 444.43a2983.81 2983.81 0 0 0-91.08 165.68c-.65-3.45-1.87-10.25-2.52-13.7 8.76-79.81 52.53-150.69 86.9-221.93z" />
        <path class="fil0" d="M3639.21 1810.47c-19.28-152.09 14.91-308.45 79.72-446.19-30.92 86.89-43.96 178.62-58.21 269.42-7.73 58.86-18.91 117.35-21.52 176.77z" />
        <path class="fil0" d="M4650.35 1401.35c112.5 96.29 200.42 218.4 277.72 343.94 32.69 59.88 64.82 121.16 83.91 186.91-.75 12.94-2.04 25.89-2.98 38.93-31.11-69.2-63.88-138.3-108.78-199.77-74.51-128.9-153.86-255.93-249.87-370.01z" />
        <path class="fil0" d="M5191.91 1717.9c6.14.65 18.34 1.86 24.49 2.51 5.86 9.41 11.83 18.82 17.79 28.22 37.43 71.34 73.57 143.98 96.29 221.65-25.8-36.51-46.38-76.27-67.8-115.39-23.47-45.73-51.97-89.03-70.78-137z" />
        <path class="fil0" d="M3670.5 2006.61c12.76 22.72 13.5 49.73 21.05 74.41 25.9 96.58 51.41 193.35 81.58 288.71-46.85-83.06-73.76-175.55-92.76-268.5-5.58-31.29-10.71-62.86-9.87-94.62z" />
        <path class="fil0" d="M3170.57 3154.26c-4.47-35.94.75-71.98 2.14-107.93 17.88 10.33 35.58 20.95 53.74 30.91 4.47 2.79 13.42 8.57 17.88 11.46-9.6 16.85-19.28 33.71-28.31 51.03-21.05 35.2-14.54 78.7 2.04 114.18 18.44 37.63 45.26 71.9 83.07 91.55 22.72 13.13 47.68 25.98 74.79 24.4 37.25-1.21 69.84-22.72 106.54-27.57-38.37 29.16-88.47 36.32-135.41 35.86-21.23 1.96-41.44-5.58-57.46-19.18-68.17-46.48-107.94-124.24-119.03-204.71z" />
        <path class="fil0" d="M4354.83 3358.04c27.39-3.07 47.6 17.51 71.34 27.29 13.87 7.26 30.64 11.27 40.24 24.86-32.51-2.04-62.96-14.99-92.02-28.78-11.08-3.35-14.81-14.43-19.56-23.38z" />
        <path class="fil0" d="M3412.53 3398.28c34.08-12.3 63.8-36.88 101.23-38.84.38 17.87-19.18 21.52-31.56 27.38-25.61 8.1-50.66 22.35-78.32 19.93-60.17-1.86-126.66 3.63-180.3-28.4 26.54.27 55.04-5.03 80.46 4.19 31.85 21.15 71.98 19.19 108.49 15.74z" />
        <path class="fil0" d="M3854.72 3862.82c11.27.18 22.54.65 33.81 1.3-10.44 9.69-22.73 16.85-35.3 23.19.37-6.15 1.12-18.44 1.49-24.49z" />
        <path class="fil0" d="M3990.6 3860.49c6.06 1.02 17.97 3.16 24.03 4.19 3.45 6.06 7.08 12.1 10.81 18.07-9.59-.75-19.09-1.49-28.59-2.14-1.58-5.03-4.65-15.09-6.24-20.11z" />
        <path class="fil0" d="M2202.66 4408.75c65.56-171.27 120.32-346.26 175.55-520.98-23.75 91.92-41.16 185.42-69.02 276.24-30.36 96.85-48.24 197.06-78.88 293.73-6.24 20.96-11.46 42.28-14.34 63.98 16.2-11.83 26.82-28.96 34.74-47.03 35.29-80.28 71.24-161.3 87.64-248-2.24 47.49-20.59 92.48-30.46 138.67-23.46 50.85-36.97 107.29-73.76 150.96-35.29 39.77-51.6 91.17-70.78 139.71-47.31 126-111.11 244.74-168.47 366.28-10.52 22.44-20.58 45.17-34 66.03 62.31-232.64 157.86-454.29 241.77-679.58z" />
      </g>
      <g id="__x0023_fdfefdff">
        <path class="fil1" d="M4333.42 283.02c264.87-124.8 571.73-155.16 856.72-90.25 28.13 3.35 35.76 34.28 44.05 56.53 14.81 52.99 27.47 107.29 29.99 162.42-.47 108.41 14.34 217.55-1.49 325.59-1.3 22.27-22.82 32.51-39.49 42.38-62.49 33.43-126.84 64.82-195.58 82.79-31.02 7.83-61.66 17.23-91.36 28.88 1.67 16.76 3.45 33.43 6.14 50.01-20.21-55.13-50.11-105.61-83.26-153.86 22.07 81.87 33.06 166.15 43.03 250.16-92.3-63.23-188.23-122-292.07-164.38-118.74-46.2-241.12-86.8-367.68-103.57 113.16-33.62 222.95-77.94 330.25-127.03 114.36-45.26 228.63-92.58 348.4-121.91-35.94-11.73-71.9-23.66-108.12-34.45-84.85-27.2-175.08-31.3-263.46-30.27-79.91 3.16-160.19 9.4-237.86 29.42-92.86 22.08-178.16 68.46-254.91 124.25-40.32 27.93-78.6 59.7-106.82 100.11-7.36 9.6-14.91 19-22.45 28.41 2.24-22.72 6.81-45.17 15.19-66.49 32.5-81.58 75.9-161.03 140.62-221.56 70.69-72.46 160.1-122.75 250.16-167.17z" />
        <path class="fil1" d="M3301.98 665.79c104.22-11.17 209.18-16.29 313.77-24.21-23.38 6.52-47.68 7.18-71.44 10.99-185.04 39.87-365.91 96.29-545.56 155.44-189.43 65.57-379.23 133.09-557.77 225.1-217.92 108.69-427.65 235.44-615.87 390.5-199.59 158.79-374.77 345.33-535.98 542.31-91.46 98.53-161.11 214.57-234.69 326.52-103.94 168.66-197.53 344.03-271.49 528.06-92.66 222.39-156.46 455.78-202.84 691.87-44.61 256.21-61.93 517.53-46.84 777.28 12.2 118.84 17.5 239.35 46.94 355.58 52.07 295.79 129.08 588.13 240.75 867.24-35.67-.65-71.44.09-107.01 2.13-34.27-70.03-57.27-144.82-81.4-218.67-104.21-326.71-172.2-665.43-195.2-1007.68-2.33-65.38-1.77-130.86-5.78-196.23 5.13-84.1 2.15-168.57 10.62-252.48 29.52-341.05 108.69-677.44 230.97-996.97 160.09-400.1 388.63-773.18 673.99-1096.07 98.53-109.24 203.59-212.43 312.37-311.43 238.23-209.83 509.05-380.91 795.25-517.08 266.82-127.77 553.02-217.37 847.22-252.2z" />
        <path class="fil1" d="M3750.98 844.23c104.12-35.48 215.31-27.94 323.44-25.15 152.08 12.39 300.54 52.53 444.6 101.71 194.65 72.64 379.14 180.02 524.81 329.59 185.33 183.75 325.59 409.41 423.56 650.43 21.52 52.52 46.2 104.02 60.26 159.17 9.69 48.79 28.13 95.46 36.88 144.44-28.78-43.49-50.85-90.89-79.07-134.76-18.91-49.16-42.84-96.2-62.31-145.19-28.21-68.64-53.92-139.42-97.41-200.23-14.24 14.9-26.45 32.96-44.7 43.3-17.23-1.02-32.04-11.27-46.85-18.91-5.96-9.4-11.93-18.81-17.79-28.22-6.15-.65-18.35-1.86-24.49-2.51 18.81 47.97 47.31 91.27 70.78 137-8.75 21.23-17.32 42.47-26.27 63.61-20.86-30.83-35.67-65.01-53.26-97.7 7.73 23.56 16.85 46.57 24.49 70.13-13.05 23.09-25.9 50.48-53.47 58.86-47.4 16.48-96.29-6.24-142.21-17.6-19.09-65.75-51.22-127.03-83.91-186.91.84-5.13 2.42-15.37 3.26-20.4 9.87 2.6 19.83 5.21 29.8 7.92 24.309-27.02 41.439-60.72 70.039-83.64 35.109-7.55 71.239 4.94 106.819 5.97 12.759 6.14 25.609 12.01 38.739 17.6-17.69-37.07-39.95-71.81-63.79-105.06 11.169-21.15 24.949-41.26 31.849-64.35-10.52-39.77-39.39-70.97-62.49-103.94-73.011-102.72-162.891-196.32-273.991-257.69-73.11-35.86-144.45-75.91-220.91-104.69-143.141-61.84-298.401-86.42-451.691-108.49-124.051-17.8-251.551-35.3-375.511-8.01-41.721 14.81-81.391 38.1-127.021 38.37-156.291 9.13-305.101 65.47-444.611 133.18-103.1 56.99-198.56 128.89-278.75 215.41-79.901 84.1-164.561 166.15-224.911 266.27 26.449-2.24 52.899-4.47 79.439-5.77-52.15 79.9-110.55 156.55-150.22 243.82-4.471 1.02-13.421 2.98-17.881 4 2.329-28.21 3.729-56.62 2.049-84.93-33.341 12.57-48.051 46.65-65.471 74.88-70.321 110.92-113.341 236.46-152.181 361.07-14.54 40.51-33.25 79.34-46.48 120.23-10.34 27.29-15.74 59.97-42.28 76.74 41.91-156.83 89.97-312.17 150.22-463.14 13.039-30.27 25.979-60.72 36.609-92.01-58.21 73.29-86.99 163.91-121.17 249.68-55.88 141.28-94.25 288.99-120.89 438.37-8.28 31.39-15.92 63.05-18.81 95.46-14.07 145.85-33.34 292.72-19.74 439.4 3.26 51.41 7.73 103.85 29.71 151.34 25.32 80.09 55.97 159.07 104.21 228.55-31.94-41.73-69.47-79.82-93.13-127.13-58.02-107.01-94.25-225.38-106.36-346.45-5.39-110.36-4.84-221.93 16.95-330.71 43.96-232.37 115.86-459.42 213.65-674.74 126.84-283.4 312.83-541.93 550.69-742.63 220.899-186.54 502.159-314.97 794.679-315.07 17.129-4.94 25.519-24.58 42.479-30.45z" />
        <path class="fil1" d="M5154.84 1223.09c68.73-68.45 150.7-134.39 251.27-142.67 171.37-12.01 350.08 40.51 479.9 154.79-155.71 26.64-308.92 65.47-463.52 96.85-46.38 9.78-91.26 27.85-139.32 28.04 80.18-48.24 168.84-79.53 254.98-115.3 24.5-10.52 50.02-18.62 75.82-25.8 4.27-1.21 13.04-3.53 17.32-4.75-49.46-12.1-100.59-13.12-150.78-20.2-57.56-4.94-115.95-11.18-173.51-2.98-61.28 8.65-110.82 50.47-170.99 63.23-5.86-14.34 11.83-21.7 18.81-31.2z" />
        <path class="fil1" d="M4702.31 1249.07c-6.23-11.92-24.86-29.89-5.86-39.21 101.51 71.8 196.5 153.48 276.98 248.57-55.33-2.89-104.69-32.41-150.13-61.56-54.85-36.14-82.05-97.51-120.98-147.81z" />
        <path class="fil1" d="M2187.57 1377.13c16.76-25.8 27.76-54.76 43.22-81.31 14.99 31.85 23.56 67.43 46.2 95.28 21.14 25.52 53.83 35.66 82.61 49.82-.65 2.89-1.87 8.58-2.52 11.46-30.45 18.44-66.68 30.92-88.1 61.19-18.44 23.01-22.54 55.13-44.8 75.25-13.87-30.17-23.09-64.17-48.05-87.54-24.77-27.56-62.11-35.94-93.22-53.83 34.08-24.68 79.53-34.18 104.68-70.31z" />
        <path class="fil1" d="M6053.93 1417.27c71.99 49.63 132.99 113.15 197.62 171.74 58.77 59.13 114.18 121.63 172.57 181.14 51.97 53.92 112.32 98.72 165.31 151.52 28.88 28.87 63.8 53.36 83.63 90.15-63.97-31.76-108.21-88.85-162.42-133.37-32.78-29.05-61.84-62.4-98.9-86.42-78.14-51.7-160.56-97.04-245.87-135.79-33.15-38.18-66.31-76.65-106.17-108.21-9.12-10.9-30.27-18.26-24.96-35.49 7.36-31.57 13.69-63.33 19.19-95.27z" />
        <path class="fil1" d="M5583.62 1643.3c71.8-9.13 143.51 3.9 213.73 17.87 74.79 19 147.34 46.11 221.84 66.49 87.81 23.29 173.78 53.37 257.69 88.39 66.69 28.21 127.78 67.52 191.29 102.07-169.13 21.42-324.47 99.75-472.09 180.87 54.76 108.03 130.48 203.86 190.09 309.1 6.43 18.91 11.73 38.09 16.95 57.36-97.88-89.12-160.93-207.68-228.82-319.53-41.63-68.17-101.61-121.91-153.48-181.89-90.43-97.97-169.78-205.72-237.21-320.74z" />
        <path class="fil1" d="M2598.09 1905.09c48.99-86.24 87.27-179.28 151.72-255.93 15.36 26.17 28.21 55.41 52.52 74.79 53.27 2.61 108.41-10.71 159.54 11.92-34.37 71.24-78.14 142.12-86.9 221.93-24.3 4.85-50.47 10.99-74.13-.09-43.59-17.97-83.73-43.22-127.78-60.35 11.55-15.74 22.45-31.94 31.02-49.46-30.45 16.31-50.58 45.27-70.14 72.74-12.01-5.13-23.93-10.25-35.86-15.56z" />
        <path class="fil1" d="M4778.68 1779.46c39.77-8.84 81.12-3.07 121.54-8.1 44.89 61.47 77.67 130.57 108.78 199.77 2.33 27.84 4.1 55.78 4.28 83.81-29.71-20.68-45.73-55.78-75.81-75.44-34 2.42-66.87 13.13-100.68 17.14-4-14.54-7.83-29.06-11.73-43.5-42.19 39.86-103.1 16.76-154.5 26.17-36.98.65-82.33 19.37-112.6-10.06-20.86-18.07-17.23-47.03-15.56-71.53 43.78-5.31 87.92 6.89 131.51.47 54.3-19.74 53.27-95.92 104.77-118.74z" />
        <path class="fil1" d="M2968.57 1805.82c34.18-.65 70.04-9.23 103.38 1.02 37.81 27.94 45.91 82.04 84.85 108.41 44.89-3.17 92.66-26.36 135.78-2.79 18.91 7.08 24.21 33.33 9.4 46.94-24.4 27.47-51.97 54.11-85.3 70.22-19.56-1.3-33.71-18.62-49.54-28.5-26.08 7.45-51.78 17.87-79.07 20.11-23.57-6.14-39.67-27.47-58.31-42-25.23 7.63-50 19.18-76.55 20.67-10.89-7.17-20.49-16.02-30.36-24.4-15.28 9.78-30.55 19.65-45.73 29.62.18-11.27.37-22.44.37-33.62a2977.296 2977.296 0 0 1 91.08-165.68z" />
        <path class="fil1" d="M4233.31 1921.86c-2.34-46.28 9.68-94.8 46.65-125.45 9.97 13.05 22.82 25.98 22.91 43.68 4.38 45.82.56 91.92 5.5 137.74l.65 10.34c-9.59-8.57-19.09-17.23-28.51-26.07-.55 27.19-4.27 54.1-10.98 80.46-6.71-.1-20.11-.38-26.82-.47-10.44-39.21-9.87-80-9.4-120.23z" />
        <path class="fil1" d="M3715.02 1842.05c22.64-4.1 45.63-5.31 68.64-3.45-13.32 63.05-23.38 127.5-46.57 187.94-20.3-19.93-21.7-49.63-24.77-76.18-3.83-36.04-2.33-72.45 2.7-108.31z" />
        <path class="fil1" d="M4123.87 1907.15c24.03-.47 59.51-13.97 72.08 14.9 25.15 33.06-13.87 86.05-52.06 71.8-19.28-24.4-25.98-56.44-20.03-86.7z" />
        <path class="fil1" d="M4462.03 1987.8c93.23 197.62 194.93 391.16 292.71 586.54-44.51-9.96-86.99-27.19-131.87-35.11-62.96-13.04-127.68-8.85-191.48-8.29 2.51-48.42 13.97-95.73 19.83-143.7 18.72-132.35 11.27-266.27 10.81-399.44z" />
        <path class="fil1" d="M6489.7 2022.72c36.51-1.59 72.73-5.68 109.06-9.77 22.91 9.59 37.25 32.68 53.73 50.65 55.98 74.6 107.75 152.56 156.19 232.27 27.38 61.85 67.33 116.98 96.76 177.89 97.13 177.32 179.84 362.75 245.49 554.04 58.21 158.88 95.55 324.28 134.3 488.66l1.3 7.08c19.56 141.56 42.93 282.84 48.61 425.89 2.51 132.43.84 264.87 3.54 397.3-23.66 369.37-104.03 733.51-221.19 1084.06-9.97 27.38-21.79 54.02-32.22 81.21-33.15-1.96-66.31-.1-99.27-.84 13.96-58.96 42.09-113.16 59.23-171.08 103.47-322.8 180.02-656.96 194.83-996.42 40.61-625.38-117.91-1254.58-411.64-1805.36-99.75-179.93-205.82-357.9-338.72-515.58z" />
        <path class="fil1" d="M5575.14 2360.13c-20.11-65.29-56.44-127.87-52.15-198.27 24.31 39.58 53.37 76 76.56 116.22 26.82 84.01 56.52 167.27 81.39 252.01 23.29 100.12 48.9 201.26 48.25 304.82.74 88.39 5.02 178.91-22.64 264.21-34.27 106.36-81.21 212.34-160.19 293.46 74.6-119.77 121.64-258.06 125.82-399.63 5.22-119.86-7.63-240.65-42-355.67-8.2-34.45-22.44-67.9-24.49-103.47 9.03-59.7-13.5-117.63-30.55-173.69z" />
        <path class="fil1" d="M3272.46 2180.2c4.28-.65 12.94-2.04 17.22-2.79-44.33 113.99 13.5 232.18 18.35 347.75-18.44 3.36-36.88 6.71-55.32 10.15-63.05 9.13-123.03 30.55-184.22 46.94 59.05-138.21 132.34-269.99 203.96-402.05z" />
        <path class="fil1" d="M2564.47 2215.6c30.17 84.56 17.6 176.67 18.07 264.77-24.58-13.32-48.34-28.22-71.16-44.42 15.93-73.76 28.04-149.01 53.09-220.35z" />
        <path class="fil1" d="M4266.92 2461.93c4.94-28.13 7.63-56.72 15.09-84.38 1.39 52.81 1.21 105.71 1.39 158.51 3.91 24.68-22.35 34.55-38.37 46.47 1.77-41.07 15.83-80.09 21.89-120.6z" />
        <path class="fil1" d="M1389.43 2431.38c7.26-12.2 17.51-21.97 28.13-31.11 15.28 14.25 30.92 28.13 46.57 42.01-107.75 170.7-199.58 351.56-269.33 541.18-31.94 87.27-62.59 175.65-78.88 267.39-23.38 7.92-48.25 5.68-72.46 4.94-.37-31.76 10.44-61.94 17.97-92.39 71.81-258.53 181.14-507.29 328.01-732.02z" />
        <path class="fil1" d="M3052.02 2640.37c92.57-27.94 189.05-43.22 285.63-49.09 25.15 34.46 39.02 76.46 57.64 114.93 18.07 47.59 61.1 78.23 100.12 107.85-33.34-7.27-65.1-19.66-97.97-28.51-.93-12.75-2.42-25.52-4.1-38.18-30.55.75-61.1.37-91.64.65 15.65 7.83 31.29 15.37 46.65 24.03-43.59 6.71-87.63 9.13-131.5 12.58-22.91-12.39-46.11-24.96-73.02-23.29 9.59 10.81 19.56 21.42 28.68 32.69-34.64 15.93-69.94 30.64-103 50.01-57.74 31.85-104.58 79.34-148.45 127.87 12.85-51.41 37.06-99.09 52.99-149.57 25.7-60.54 41.26-127.59 77.95-181.98z" />
        <path class="fil1" d="M4414.82 2595.57c53.36-12.75 108.04-.37 161.86 1.5 60.07 7.72 119.67 19.65 178.63 33.7 28.78 5.4 39.3 36.51 52.06 59.05 43.49 94.62 95.18 185.62 133.18 282.57-68.45-72.28-148.92-132.43-238.98-175 10.62-12.38 21.79-24.4 32.78-36.51-21.23 1.67-44.42-1.12-63.33 10.81-12.1 4.94-23.09 16.11-36.97 14.44-40.42-4.94-80.93-8.01-121.45-11.46 15.56-9.03 31.11-17.97 46.57-27.19-34.92-1.77-72.27-6.71-104.21 11.08 9.4 7.18 19.09 13.97 28.78 20.96-109.161 30.17-208.431 107.74-252.111 213.55 15.74-9.69 30.65-20.68 46.57-30.08-6.051 34.74-21.791 67.43-23.651 103 17.6-8.75 25.97-26.35 34.82-42.75 8.199 58.58 5.029 118.46 18.249 176.49 10.989 58.76 52.529 105.33 92.859 146.77 45.539 43.22 112.409 33.25 168.289 21.7-1.771 4.57-5.321 13.5-7.081 18.07-14.991 5.49-29.991 11.26-44.341 18.34 46.479 2.24 93.129-10.71 136.529-26.54-27.291-1.39-54.671.93-81.951-.37 11.36-22.07 34.45-32.88 51.97-49.09 46.009-51.03 77.389-115.1 85.119-183.75 5.589-31.48 7.549-63.42 9.319-95.36 32.219 32.68 65.839 64.54 92.199 102.25 9.779 13.32 9.599 30.45 11.359 46.2-6.611 15.83-14.061 31.29-19.931 47.4 54.02-34.27 92.86-86.52 124.89-140.82 11.459 119.49-35.851 234.33-86.331 339.94-31.761 69.57-82.521 129.44-145.751 172.29 54.109-.1 103.939-22.64 155.239-36.69-41.44 126.84-106.54 247.63-194.08 348.78-105.801 120.33-254.351 187.1-395.541 255.83-86.611 40.14-173.781 79.34-263.191 112.69-32.961 12.11-69.101 23.66-103.941 11.74-67.051-22.35-132.051-50.58-195.851-80.93-133.371-61.57-268.681-122.29-387.711-209.65-133.921-103.74-227.421-250.43-293.641-404.46-5.59-14.16-9.59-28.69-13.41-43.22 53.729 17.13 107.469 42.93 165.029 39.86-63.511-38.84-109.811-99.09-139.881-166.43-46.66-103.74-93.98-214.67-84.29-330.8 40.139 44.42 72.359 97.03 122.929 131.03-2.881-12.38-6.331-24.49-9.401-36.69-1.491-20.11-9.491-44.42 6.519-60.82 28.309-34.92 62.769-64.35 97.979-92.11 2.329 33.16 3.529 66.5 9.019 99.37 11.089 80.47 50.859 158.23 119.029 204.71 16.019 13.6 36.229 21.14 57.459 19.18 46.939.47 97.039-6.7 135.409-35.86 21.049-13.96 36.419-34.82 48.619-56.62 54.48-72.82 54.3-167.35 51.03-254.06 14.069 12.3 28.499 24.12 43.399 35.39-9.221-34-17.791-68.17-28.961-101.61 12.669 4.47 25.519 8.95 38.369 13.23-9.771-51.32-55.131-82.42-82.701-123.58 6.889-1.49 20.779-4.57 27.669-6.06-28.511-76.38-67.531-151.44-68.551-234.88 11.36 4.75 22.82 9.59 34.27 14.53 17.789 70.79 36.609 142.03 70.689 207.04 24.959 52.15 64.919 94.72 104.019 136.53-39.671-86.7-73.391-176.4-101.791-267.29 44.879 93.78 90.889 188.87 159.809 267.76 50.759 55.04 106.449 105.51 167.349 149.1 50.579 36.04 98.529 76.74 154.789 104.02 10.34-69.29 11.46-140.07 28.88-208.33 28.13-108.78 60.91-216.26 89.03-325.03 5.679-18.91 9.589-39.3 21.789-55.41 10.989-6.98 23.569-10.89 35.769-15.46-5.871 105.61-27.761 209.83-49.641 313.11 82.789-100.39 152.459-213.35 188.499-339.09h-.001zm-59.98 762.47c4.75 8.95 8.48 20.03 19.56 23.38 29.06 13.79 59.51 26.73 92.02 28.78-9.6-13.59-26.36-17.6-40.24-24.86-23.75-9.77-43.96-30.36-71.34-27.29zm-942.31 40.24c-36.51 3.45-76.65 5.4-108.49-15.74-25.43-9.22-53.93-3.91-80.46-4.19 53.64 32.03 120.14 26.54 180.3 28.4 27.66 2.42 52.71-11.83 78.32-19.93 12.38-5.86 31.94-9.5 31.56-27.38-37.43 1.96-67.15 26.54-101.23 38.84zm500.5 127.5c8.2-.1 24.77-.18 32.96-.28-.37-14.16-.75-28.31-1.12-42.47-25.42-1.02-34.37 20.86-31.85 42.75zm-58.31 337.05c-.37 6.06-1.12 18.34-1.49 24.49 12.57-6.34 24.86-13.5 35.3-23.19-11.27-.65-22.54-1.12-33.81-1.3zm135.88-2.33c1.59 5.02 4.66 15.08 6.24 20.11 9.5.65 19 1.39 28.59 2.14-3.73-5.97-7.36-12.01-10.81-18.07-6.06-1.02-17.97-3.16-24.03-4.19z" />
        <path class="fil1" d="M4332.3 2606.75c9.78-1.58 19.56-3.16 29.43-4.75-13.97 61-33.99 120.42-61.84 176.49 16.11-56.25 18.72-115.02 32.41-171.74z" />
        <path class="fil1" d="M2932.81 2788.45c-1.86-42.28-10.34-95.46 32.22-121.44-4.38 41.9-20.68 81.2-32.22 121.44z" />
        <path class="fil1" d="M6536.63 2795.15c-9.5-25.89 28.5-29.33 43.22-41.06 37.63 76.65 78.6 151.89 108.59 232.09-16.67 8.84-34 16.48-51.87 22.26-26.92-74.14-73.58-139.14-99.94-213.28z" />
        <path class="fil1" d="M3169.08 2975.65c11.36-33.71 48.25-44.05 77.68-56.44 1.11 9.4 2.13 18.81 3.35 28.21 28.78 14.72 59.88 25.05 86.52 43.77-15.18 43.12-47.5 77.95-91.27 92.66-4.75-1.67-14.16-5.02-18.91-6.61-18.16-9.96-35.86-20.58-53.74-30.91-2.04-23.38-9.12-47.31-3.63-70.69z" />
        <path class="fil1" d="M4343.66 3061.6c-37.43-44.33 9.6-107.1 56.9-120.6 10.44 9.4 20.11 19.84 31.67 28.13 19.18 3.54 43.12-4.1 56.07 14.99 2.13 38.1-36.98 62.4-63.51 83.45-27.1 6.14-54.95 2.41-81.13-5.97z" />
        <path class="fil1" d="M1693.97 2959.62c12.76 2.24 29.25-2.14 37.54 10.71 1.95 11.83.65 23.94.37 35.95-15.37 4.85-31.11 4.75-46.38 0-1.3-16.2 1.12-32.22 8.47-46.66z" />
        <path class="fil1" d="M1400.98 2965.49c33.71 91.09 32.79 197.53 96.58 275.76 56.25 66.78 147.24 78.6 224.92 105.8-79.54 23.66-169.31 37.63-228.64 101.71-64.45 63.98-67.24 159.81-90.15 242.33-27.66-89.68-36.23-196.7-113.71-260.21-59.05-46.2-135.24-63.61-208.34-71.43-10.99 64.07-26.35 127.4-33.34 192.03-4.37 23.75-2.14 49.64-15.92 70.78-21.33-.92-42.56-.92-63.89-1.11 3.36-85.03 24.03-168.2 39.02-251.74 16.49-.84 32.97-.84 49.55-1.3 10.89-11.63 19.36-28.87 37.35-29.89 81.67-16.31 170.71-42.48 222.4-112.88 49.82-78.32 56.06-173.41 84.18-259.83z" />
        <path class="fil1" d="M6070.98 3052.95c2.13.37 6.61 1.11 8.75 1.58 13.78 34.74 21.51 73.77 48.24 101.7 29.25 33.81 74.69 43.97 113.62 62.03-38.56 21.33-83.36 34.55-113.62 68.18-26.64 28.31-39.58 65.75-54.3 100.96-20.58-33.53-25.52-75.54-53.64-104.4-30.45-31.67-74.23-43.03-113.53-59.14 20.85-28.5 61.28-30.17 88.85-50.65 45.35-24.12 54.2-78.23 75.63-120.23z" />
        <path class="fil1" d="M2533.74 3403.21c-16.76-111.75-13.41-225.1-10.98-337.7 7.63 136.35 26.26 272.31 58.95 404.94 24.49 82.61 56.07 163.16 78.32 246.61 9.32 41.72 4.84 84.93 10.15 127.21 5.39-15.83 10.52-31.76 14.61-47.87 1.77 6.71 3.54 13.42 5.6 20.21-5.78 10.43-7.92 21.52-6.44 33.25 4.94 43.87 13.51 87.26 19.47 131.04-103.1-175.56-139.04-379.33-169.69-577.7z" />
        <path class="fil1" d="M5338.03 3112.92c7.92 62.86-.28 126.01 1.67 189.05-1.77 99.1-29.33 194.93-48.61 291.5-28.78 137-71.9 272.23-140.91 394.7 7.26-48.72 16.3-97.14 25.89-145.38 11.64-40.14 20.21-80.93 27.76-122.01 9.5-51.59 30.92-99.93 43.5-150.77 16.75-65.2 29.05-131.51 45.72-196.7 22.17-85.5 28.04-173.96 44.99-260.4z" />
        <path class="fil1" d="M6749.63 3317.34c20.77-8.95 42.56-16.3 65.56-15.74 32.6 113.62 65.85 228.17 77.68 346.08-21.05 3.26-41.91 7.36-62.59 11.64-20.86-115.4-50.95-228.64-80.65-341.98z" />
        <path class="fil1" d="M5399.31 3391.2c70.79 229.38 136.81 463.79 260.68 671.57 89.13 160.84 188.03 315.9 277.63 476.46 100.49 175.83 200.79 354.56 259.46 549.57 22.72 81.58 39.95 165.86 35.67 251.08 1.02 55.6-23.84 109.99-62.77 149.11-15.18 15.65-35.29 25.23-56.9 27.66 25.06-44.34 55.88-86.52 65.75-137.65 23.94-119.48-13.04-240.74-63.14-348.68-157.58-338.82-399.07-633.11-534.57-982.82-16.68-41.72-34.46-82.89-53-123.67 44.15 188.96 75.72 380.99 128.34 568.1 8.37 36.23 17.87 72.36 23 109.33-29.52-29.52-43.21-69.47-59.69-106.82-33.63-74.51-59.05-152.27-86.8-229.11-.1-23.46-1.49-46.94-6.14-69.84-32.41-139.23-61.47-279.12-94.81-418.16-21.79-83.82-12.1-171.18-25.23-256.11-4.2-37.06-7.73-74.22-7.83-111.48.1-4.65.28-13.87.37-18.53z" />
        <path class="fil1" d="M2300.91 3987.8c46.1-154.98 94.53-309.39 135.88-465.76 5.4 49.54 10.99 99.19 12.75 149.11 5.32 55.32-11.92 108.31-20.2 162.23-8.85 92.48-21.7 184.49-31.39 276.88-7.64 79.16-39.3 152.64-63.06 227.8-3.07 13.97-12.57 24.77-27.01 27.29 9.87-46.2 28.22-91.18 30.46-138.67-16.39 86.7-52.35 167.72-87.64 248-7.92 18.07-18.54 35.2-34.74 47.03 2.88-21.7 8.1-43.02 14.34-63.98 30.64-96.67 48.52-196.88 78.88-293.73 27.85-90.81 45.27-184.31 69.02-276.24-55.23 174.71-109.99 349.71-175.55 520.98-83.91 225.29-179.47 446.94-241.77 679.58-15.74 26.27-41.73 44.89-71.61 51.13 44.98-200.88 137.92-386.68 215.51-576.3 78.69-187.01 140.25-380.53 196.13-575.36z" />
        <path class="fil1" d="M6444.25 3816.91c66.86-75.63 69.56-182.17 102.62-273.25 30.18 86.79 31.57 185.23 85.87 262.53 60.63 73.2 161.59 77.58 244.75 108.5-60.81 16.67-123.03 28.59-181.42 52.99-4.28 100.39 5.69 201.35-6.61 301.29-21.23 325.12-107.75 644.75-242.61 940.82-8.65 19.74-19.83 38.18-32.87 55.41-25.71-14.91-54.39-26.82-74.42-49.46-2.33-16.58 8.48-31.02 14.25-45.64 78.51-160.28 129.82-332.2 173.22-504.67 48.42-196.05 71.24-397.68 76.55-599.03 9.5-36.88 41.73-59.5 68.27-84.01-20.03 14.44-41.16 28.69-54.85 49.64-42.38 72.46-53.56 156.84-75.26 236.55-19.18-82.7-29.52-173.04-82.61-242.42-46.38-60.54-124.52-82.05-196.13-94.81-22.07-4.94-47.68-3.07-65.75-18.34 85.87-19.37 178.63-36.14 246.99-96.11z" />
        <path class="fil1" d="M5154.56 3772.76c3.45-1.39 10.24-4.28 13.69-5.77-1.12 16.48-2.24 32.96-3.08 49.54-16.95 58.21-52.43 108.13-77.2 162.98-75.91 164.09-192.5 307.9-333.04 421.14-33.15 25.89-66.58 51.97-104.58 70.5 77.95-90.15 147.06-187.39 219.51-281.91 20.4-26.27 35.94-56.53 61.47-78.51 35.11-29.71 70.03-60.63 97.7-97.61 34.08-52.43 52.99-113.06 86.89-165.58 15.65-23.38 28.31-48.62 38.65-74.79z" />
        <path class="fil1" d="M1863.1 3929.6c34.55-31.67 36.98-83.36 68.65-116.79 20.21 44.04 28.13 96.48 65.37 130.56 23.29 23.94 56.25 32.79 86.33 44.89 10.62-.84 20.95 16.48 6.89 19.28-49.17 16.58-95.46 46.01-123.68 90.53-14.9 25.7-23.56 54.3-32.22 82.51-3.82.56-11.36 1.49-15.09 2.05-13.69-44.8-31.01-90.52-65.19-123.87-23.66-23.38-55.04-35.95-85.68-47.22-7.45-4.38-23.84-4.38-17.5-16.86 39.77-17.04 82.89-31.38 112.12-65.09z" />
        <path class="fil1" d="M2708.55 3846.42c33.06 2.33 46.38 34.92 60.35 59.98 24.95 48.33 52.89 96.01 91.64 134.85 35.39 42.56 59.97 96.77 110.36 124.33 28.68 23.1 44.51 58.39 69.94 84.93 39.95 42.28 63.14 96.86 102.35 139.71 21.79 24.68 41.44 51.12 63.61 75.62-137.75-65.66-239.82-183.55-329.97-303.14-46.94-64.55-87.36-133.83-120.7-206.29-16.58-36.42-37.62-71.06-47.59-109.99z" />
        <path class="fil1" d="M1210.99 4080.74c30.65-5.39 61.94-5.59 93.04-5.96 29.15 469.01 156.46 935.32 391.99 1343.43 11.36 34.45-40.32 37.35-60.54 53.08-67.71-83.44-119.48-178.53-164.84-275.57-75.81-157.48-128.7-324.85-174.53-493.14-50.85-203.3-82.24-412.19-85.13-621.84z" />
        <path class="fil1" d="M846.48 4405.22c31.57-15.93 68.07-9.5 102.07-10.99.1 82.05 17.23 162.8 30.92 243.35 38.93 217.38 97.41 431.67 180.86 636.28 27.94 79.63 71.9 152.36 101.98 231.15-34.36 4.2-69.01 5.87-103.65 5.12-15.83-14.43-23.84-35.11-33.43-53.73-154.04-330.25-245.03-688.8-278.74-1051.18z" />
        <path class="fil1" d="M6888.3 4553.58c9.77-52.72 11.64-106.64 24.11-158.88 30.08 0 60.26-.28 90.43.74-36.14 382.49-132.43 761.26-296.25 1109.48-34.82 1.02-69.66.84-104.39 1.67 7.26-28.96 21.32-55.41 34.17-82.05 126.94-275.86 200.71-572.76 251.93-870.96z" />
        <path class="fil1" d="M3470.55 4447.13c4.94-6.44 9.87-12.76 14.99-18.91-1.96 20.67-5.69 41.44-4.28 62.3 9.59 22.54 31.39 36.69 48.8 53 56.15 46.28 106.82 98.44 161.4 146.4 58.39 50.1 108.87 108.78 169.87 155.99 32.04 19.37.65 51.5-11.55 73.02-69.57 95.73-132.62 196.04-203.49 290.85-31.57 44.98-67.33 87.81-89.5 138.67-73.02-117.07-140.72-237.49-199.3-362.38-15.19-28.78-5.5-62.12-3.17-92.66 23.1-152.37 70.79-299.51 116.23-446.29z" />
        <path class="fil1" d="M4372.16 4510.45c21.89-23.46 17.22-57.83 18.62-87.26 28.31 54.39 45.54 113.62 63.14 172.2 29.52 110.36 57.64 221.56 71.7 335.18.56 18.54-11.26 34.74-17.69 51.6-38.1 76.74-70.87 156.28-114.55 230.13-22.64 42.65-48.34 83.44-69.02 127.13-48.34-48.9-84.47-107.85-122.38-164.84-28.31-39.95-56.62-79.91-84.18-120.42-33.53-48.71-59.14-103.2-100.68-146.03-27.1 15.55-47.6 39.39-71.62 58.86 26.64-58.58 59.8-116.7 109.16-159.17 69.47-57.27 128.42-125.91 196.42-185.05 38.74-39.109 84.65-70.869 121.07-112.319z" />
        <path class="fil1" d="M3210.62 4606.38c10.89-8.38 22.91-14.99 35.3-20.96-31.77 58.76-82.99 103.47-123.96 155.54-84.93 98.72-169.59 197.81-246.99 302.68-47.96 66.21-100.01 130.01-138.01 202.74 58.67 45.36 126.1 77.21 187.75 118 54.48 35.77 119.4 57.84 164.47 106.36-63.24-24.68-122.1-59.05-181.42-91.54-75.81-44.62-155.16-83.45-227.71-133.46 67.8-97.33 143.33-189.61 214.02-285.08 102.72-120.42 191.94-254.53 316.55-354.27z" />
        <path class="fil1" d="M4624.82 4585.05c36.14 17.7 61.85 49.46 90.06 77.12 50.29 52.15 102.91 102.82 145.2 161.95 40.51 55.33 86.52 106.45 126.19 162.52 52.15 74.42 108.59 145.66 163.54 218.12 9.69 12.76 16.85 27.19 22.64 42.18-67.9 49.27-143.99 85.41-216.07 127.69-65 30.08-122.93 75.71-192.41 95.55 111.76-89.78 244.85-148.09 361.26-231.16-48.05-85.59-112.22-160.37-170.62-238.78-45.16-60.17-92.85-118.28-139.79-177.14-63.42-79.16-137.17-150.87-189.99-238.04z" />
        <path class="fil1" d="M5653.37 4646.71c-6.52-20.86-20.86-43.3-9.97-65.1 36.61 40.69 66.59 86.8 86.99 137.84 62.68 157.39 126.19 315.06 170.8 478.88 27.85 100.86 38.28 205.73 33.34 310.22-30.17-12.3-33.34-54.86-44.61-83.07-26.08-191.21-75.44-379.7-149.85-557.95-26.45-74.59-57.27-147.43-86.7-220.81z" />
        <path class="fil1" d="M2794.6 4804.19c92.29-29.43 182.54-64.91 274.27-95.92-11.46 23.47-27.19 45.17-48.79 60.35-83.91 41.26-173.04 70.41-260.31 103.75-146.02 58.3-295.5 107.37-442.28 164-32.97 14.25-73.48 21.8-94.63 53.84-60.99 134.57-80.08 283.12-130.38 421.51-33.34-1.12-66.59-.93-99.94.75 39.58-150.69 73.95-309.57 168.1-437.45 23.47-26.35 35.2-65.66 67.8-82.23 190.74-56.53 377.18-126.47 566.15-188.6z" />
        <path class="fil1" d="M4781.19 4705.84c66.69 16.68 129.82 43.96 193.72 68.73 210.1 72.08 419.84 146.03 630.31 216.72 23.01 24.95 34.37 58.01 54.58 85.12 43.77 59.88 64.82 131.88 89.22 200.88 25.33 77.12 51.78 154.42 65.29 234.7-35.02-1.3-70.04-1.12-104.86 2.04-25.7-90.15-38.28-183.47-56.44-275.2-8.66-59.88-35.58-114.65-60.45-168.94-23.93-16.76-52.99-23.46-79.91-33.62-173.87-68.64-351.84-126.94-523.49-201.17-77.3-27.19-163.26-54.48-207.96-129.27z" />
        <path class="fil1" d="M3380.96 5145.42c12.39 22.35 27.02 44.8 30.55 70.69.84 60.82 39.3 109.81 65.37 161.96 16.58 32.5 37.16 62.86 59.88 91.54 39.03-11.26 65.01-43.87 92.67-71.34 28.03-28.31 55.32-57.27 82.42-86.42 16.2 35.3 31.11 73.02 30.36 112.41-7.55 29.62-13.5 64.45-35.76 86.33-87.64 6.06-175.65 1.03-263.38 2.89-25.05-121.91-44.79-244.85-62.12-368.06z" />
        <path class="fil1" d="M3724.9 5163.21c27.94 48.06 50.95 99.47 69.57 151.81-41.36-38-64.82-96.21-69.57-151.81z" />
        <path class="fil1" d="M4135.51 5173.09c7.55 11.92 12.76 26.82 6.34 40.69-12.39 29.99-28.22 58.39-42.19 87.64-3.63 11.18-12.95 17.69-24.21 19.65 9.22-52.81 39.39-99 60.07-147.98z" />
        <path class="fil1" d="M4379.98 5364.94c21.98-44.05 45.73-87.27 75.34-126.76-5.12 50.29-16.2 100.96-5.49 151.44-.47 41.06-6.15 83.16-18.54 122.56-85.22.28-170.43-.75-255.65.55-15.08-29.33-27.76-59.7-39.3-90.52 3.54-43.87 33.06-77.67 63.51-106.55 52.44 45.73 89.31 109.9 153.3 141.38 30.83-31.95 53.64-70.97 61.74-115.02-11.82 7.45-23.38 15.18-34.92 22.91z" />
        <path class="fil1" d="M3771.46 5381.98c34.92-21.89 77.4-17.5 116.6-21.23 52.81-5.68 106.08-7.17 159.07-4.19 22.54 1.3 42.84 12.2 60.35 25.89-63.61 6.99-127.59 3.91-191.39 6.24-48.24.75-97.32 5.12-144.63-6.71z" />
        <path class="fil1" d="M880.18 5745.94c121.27 1.58 242.61 1.49 363.88.92 125.44 343.66 240.27 691.23 361.06 1036.47 11.55-14.99 18.25-32.78 24.49-50.29 123.31-320.09 246.24-640.28 369.17-960.46 3.17-10.06 9.03-18.25 17.51-24.41 43.77-2.98 87.63 0 131.5-.92 82.89 195.67 152.27 396.55 227.8 595.11 57.37 147.44 113.81 295.42 171.27 442.75 120.05-342.26 229.48-688.25 350.18-1030.23 3.35-1.77 10.06-5.21 13.41-6.98 118-1.12 236.18-.28 354.28-.18l-2.79 7.92c-70.59 198.74-131.88 400.65-202.37 599.49-113.91 324.1-220.63 650.8-341.05 972.57-107.11 6.8-214.86-3.35-321.68 9.32-5.59-30.74-17.32-59.8-28.13-88.94-74.79-199.21-147.24-399.26-219.61-599.4-23.01-60.34-44.33-121.34-70.87-180.3-95.46 261.89-195.01 522.28-292.62 783.33-11.82 28.41-16.75 61.74-39.21 84.38-103.94 4.47-208.15-1.67-311.99 3.73-66.78-167.18-123.59-338.07-183.75-507.57-61.94-188.77-132.63-374.39-193.9-563.35-58.02-174.63-123.31-347.01-176.58-522.94z" />
        <path class="fil1" d="M3410.3 5746.78c298.95.09 597.9 1.02 896.95.47 199.31 1.3 398.79-2.33 598.09 1.96 2.04 113.9 4.1 228.08-.28 341.88-200.33-.93-400.65.18-600.98-1.39-4.85 415.54.65 831.48-2.14 1247.12-120.33 1.03-240.65-.46-360.98.47.18-414.99-.93-829.99.92-1244.98-176.49-3.9-353.16-.27-529.73-1.86-4.65-114.46-1.59-229.11-1.86-343.66z" />
        <path class="fil1" d="M5335.89 5748.92c481.21-4.57 962.8.18 1444.19-1.59.28 29.06-2.98 58.31-11.83 86.15-17.6 46.66-22.44 96.67-25.05 146.12-1.87 37.26-10.71 73.77-17.97 110.27-344.41 2.24-688.9-.37-1033.21 1.87-1.02 105.51-1.21 211.22 1.39 316.74 300.26 1.49 600.61.47 900.86.75-14.06 109.15-36.23 217.08-55.87 325.3-38.18 10.44-78.05 4.01-117.07 5.03-102.45-1.96-205.07 3.82-307.24-4.57-141.09.38-282.27-3.91-423.09 5.59.74 198.74 2.33 397.58-.56 596.32-117.53.55-235.15-1.67-352.69 1.12-5.68-153.58-.84-307.52-2.23-461.28.74-375.98-.84-751.85.37-1127.83z" />
        <path class="fil1" d="M7097.47 6192.78c56.35-.93 112.69.1 169.14-.74-5.13 21.05 3.72 49.63-15.84 64.07-54.01 2.33-108.22.47-162.23.56 1.86-21.52 5.03-42.75 8.94-63.89z" />
        <path class="fil1" d="M447.59 6192.88c53.64.18 107.29-1.03 160.93 1.12 11.64 17.79 5.22 42.37 8.2 62.95-53.93-.65-107.85.18-161.77.28-4.57-21.23-6.81-42.84-7.36-64.35z" />
        <path class="fil1" d="M489.87 6369.45c47.5-.47 95.09-1.86 142.67-1.21 5.12 24.3 10.44 48.71 10.71 73.76-45.63.75-91.26 1.4-136.9 2.42-6.52-24.78-12.2-49.74-16.48-74.97z" />
        <path class="fil1" d="M7057.24 6444.24c3.07-25.43 7.82-50.48 14.16-75.16 49.36.55 99.19-3.08 148.26 4.19-3.82 23.47-8.85 46.66-14.16 69.94-49.46.85-98.82.56-148.26 1.03z" />
        <path class="fil1" d="M606.01 6642.24c28.31 3.45 65.1-12.94 86.89 10.71-15.83 30.27-51.78 21.61-79.72 21.98-1.76-8.2-5.39-24.58-7.17-32.69z" />
        <path class="fil1" d="M7028.74 6645.21c27.47 1.49 55.04 3.17 82.43 6.81l4.28 12.3c-28.78 9.77-58.96 13.41-89.13 14.71.65-11.36 1.49-22.64 2.41-33.81z" />
      </g>
      <g id="__x0023_fcaed9ff">
        <path class="fil2" d="M5264.18 411.73c23.56 85.03 15.36 175 15.74 262.35-8.11 125.26-23.84 252.57-74.6 368.52-25.89 60.91-72.27 109.34-115.57 158.13-34.09-33.43-70.41-64.35-105.06-96.95-16.85-53.27-21.23-110.08-42.28-162.42-2.7-16.58-4.47-33.25-6.14-50.01 29.7-11.64 60.34-21.05 91.36-28.88 68.73-17.97 133.09-49.36 195.58-82.79 16.67-9.87 38.18-20.11 39.49-42.38 15.83-108.04 1.02-217.18 1.49-325.59z" />
        <path class="fil2" d="M5307.01 1191.06c57.56-8.2 115.95-1.96 173.51 2.98 50.2 7.08 101.33 8.1 150.78 20.2-4.28 1.22-13.05 3.54-17.32 4.75-114.65-1.96-229.76 19.29-336.21 61.84-27.85 10.15-52.99 28.59-82.62 33.34-20.77-18.91-36.5-42.93-59.13-59.88 60.17-12.76 109.71-54.58 170.99-63.23z" />
        <path class="fil2" d="M5886.02 1235.2c44.42 35.02 50.58 101.98 47.68 155.53-1.3 50.48-45.63 85.31-88.66 102.82-79.63 31.67-166.8 46.94-252.3 37.81-72.82-7.45-145.75-16.67-217.27-32.59-44.24-8.85-86.7-40.69-99.37-85.12 81.39 1.39 160.36 26.54 241.58 31.56-83.36-38.27-169.13-77.86-262.91-78.78 9.22-2.71 18.62-5.69 28.41-6.34 48.05-.18 92.94-18.25 139.32-28.04 154.6-31.38 307.81-70.21 463.52-96.85z" />
        <path class="fil2" d="M5376.86 1584.73c69.39-12.39 141.37-19.75 211.59-10.07 72.28 21.61 140.26 55.6 208.9 86.52-70.22-13.97-141.93-27.01-213.73-17.87 67.43 115.02 146.77 222.77 237.21 320.74 51.87 59.98 111.85 113.72 153.48 181.89 67.9 111.85 130.94 230.41 228.82 319.53-5.22-19.28-10.52-38.46-16.95-57.36 30.54 36.04 51.97 78.51 79.34 116.88 29.99 44.42 64.73 85.5 92.48 131.51-63.14-43.31-128.8-82.8-193.99-122.84-160-88.19-318.98-178.26-480.27-263.84-26.821-10.81-32.601-40.98-40.701-65.29-60.441-217.37-153.011-424.96-266.171-619.79z" />
        <path class="fil2" d="M1574.2 2193.52c20.21 5.87 60.63 28.31 39.12 51.97-31.66 38.65-60.16 80.65-100.02 111.67-13.41-12.95-25.42-27.19-35.2-43.02 34.65-38.01 67.15-78.14 96.11-120.61z" />
        <path class="fil2" d="M2217.84 2592.12c2.89-32.41 10.52-64.07 18.81-95.46.84 19.56 2.61 39.12 4.2 58.68 5.49-6.62 10.99-13.13 16.48-19.66-2.24 25.43.18 51.04 5.96 76-18.54 73.48-39.12 147.24-46.75 223.15-21.23 115.48-7.08 233.2 11.27 348.03-21.98-47.49-26.45-99.93-29.71-151.34-13.6-146.68 5.68-293.55 19.74-439.4z" />
        <path class="fil2" d="M4859.89 2657.14c23.85 6.33 53.64 13.5 63.33 39.29 6.52 30.83 5.97 62.68 5.4 94.07-28.78-41.26-47.12-88.28-68.73-133.36z" />
        <path class="fil2" d="M3913.03 3525.77c-2.52-21.89 6.43-43.77 31.85-42.75.37 14.16.75 28.31 1.12 42.47-8.2.1-24.77.18-32.96.28z" />
        <path class="fil2" d="M7335.14 3949.43c10.43 53.09 13.42 107.29 11.46 161.4-2.79 78.6 6.24 157.96-7.92 235.9-2.71-132.43-1.03-264.87-3.54-397.3z" />
        <path class="fil2" d="M2860.54 4041.25c45.54 12.58 73.94 51.97 102.45 86.8 5.77 11.64 6.88 24.68 7.92 37.53-50.39-27.56-74.97-81.77-110.36-124.33z" />
        <path class="fil2" d="M3958.29 4581.51c122.65-63.88 236.09-145 341.33-234.5.74 37.35 8 75.34 1.02 112.32-17.32 35.94-50.48 60.35-76.37 89.78-89.13 99.93-188.13 190.26-279.96 287.68-107.47-93.97-209.36-194.27-308.55-296.71-23.93-26.64-51.5-51.51-65.84-84.94-5.69-35.02.18-70.59 3.82-105.51 88.01 81.95 185.99 153.38 290.2 213.36 29.06 12.67 62.77 39.58 94.35 18.53z" />
        <path class="fil2" d="M4336.68 4363.4c23.56 13.32 48.24 31.48 54.11 59.79-1.4 29.43 3.26 63.8-18.62 87.26-36.42 41.44-82.33 73.21-121.07 112.32-67.99 59.14-126.94 127.78-196.42 185.05 58.85-79.34 134.66-144.72 199.39-219.32 40.61-48.15 86.24-92.01 123.87-142.67-2.79-31.3-36.14-50.76-41.26-82.42z" />
        <path class="fil2" d="M3470.55 4447.13c8.85-26.82 17.97-65.29 52.71-66.12-11.92 20.95-40.14 37.53-32.5 64.62 26.82 42.38 65.1 75.81 98.25 113.25 59.05 67.98 124.42 130.11 187.1 194.74 28.88 30.27 61.84 57.18 85.22 92.29-60.99-47.22-111.47-105.89-169.87-155.99-54.58-47.97-105.24-100.12-161.4-146.4-17.42-16.31-39.21-30.46-48.8-53-1.4-20.85 2.33-41.63 4.28-62.3-5.12 6.14-10.06 12.47-14.99 18.91z" />
        <path class="fil2" d="M3307.3 4572.47c28.03-41.72 57.74-83.06 96.29-115.94-7.55 27.56-18.25 54.01-28.5 80.65-38.28 105.61-49.09 218.2-61.66 329.03-14.99-74.14-17.7-149.94-24.21-225.1-3.08-24.41 4.56-48.42 18.07-68.65z" />
        <path class="fil2" d="M4484.94 4482.7c36.79 42.28 68.92 90.89 85.68 144.73 9.5 60.44 1.3 121.91-4.84 182.35-2.14 12.67-.47 27.66-10.25 37.72-7.17-73.85-17.87-147.43-29.9-220.63-7.82-49.63-29.52-95.46-40.69-144.16z" />
        <path class="fil2" d="M4340.31 5413.65c46.66-91.17 100.21-178.63 148.83-268.59-9.4 71.16-25.15 141.56-30.65 213.28a187.04 187.04 0 0 1-8.65 31.29c-10.71-50.48.37-101.14 5.49-151.44-29.62 39.49-53.36 82.7-75.34 126.76 11.55-7.73 23.1-15.46 34.92-22.91-8.1 44.04-30.91 83.06-61.74 115.02-63.98-31.48-100.86-95.65-153.3-141.38-30.45 28.88-59.97 62.68-63.51 106.55-17.5-62.59 25.52-115.39 52.62-167.27 42.1 47.68 75.81 102.73 123.4 145.38 7.26 8 18.07 10.06 27.94 13.32z" />
        <path class="fil2" d="M3411.51 5216.11c57.64 60.17 76.37 149.76 139.61 204.89 41.9-57.09 88.19-111.3 125.07-172.02 11.92 20.86 24.21 41.63 35.67 62.86-27.1 29.15-54.39 58.11-82.42 86.42-27.66 27.47-53.64 60.08-92.67 71.34-22.72-28.68-43.3-59.05-59.88-91.54-26.07-52.15-64.54-101.14-65.37-161.96z" />
      </g>
      <g id="__x0023_8c7a98ff">
        <path class="fil3" d="M4311.63 485.48c77.67-20.02 157.95-26.26 237.86-29.42 88.38-1.03 178.62 3.07 263.46 30.27-54.01-.85-106.82-13.97-160.66-16.58-197.62-13.5-403.63 27.47-570.43 137.74-47.68 29.25-86.99 69.48-131.97 102.35 28.21-40.41 66.49-72.18 106.82-100.11 76.75-55.78 162.05-102.17 254.91-124.25z" />
        <path class="fil3" d="M3960.43 1052.19c24.86-12.01 54.85-18.06 78.88-.84a413.265 413.265 0 0 1-78.88.84z" />
        <path class="fil3" d="M2357.54 2058.29c34.18-85.77 62.96-176.39 121.17-249.68-10.62 31.29-23.57 61.74-36.61 92.01-60.25 150.97-108.31 306.31-150.22 463.14-17.7 55.88-27.47 113.81-34.55 171.92-5.49 6.52-10.99 13.04-16.48 19.66-1.59-19.56-3.36-39.12-4.2-58.68 26.64-149.38 65-297.09 120.89-438.37z" />
        <path class="fil3" d="M1054.44 2292.43c73.57-111.95 143.23-227.99 234.69-326.52-5.77 13.22-11.92 26.54-20.3 38.37-135.69 171.17-248.1 359.3-351.94 551.06-305.47 595.2-437.82 1282.14-351.48 1947.1 5.4 47.59 18.72 94.52 14.81 142.77-29.43-116.23-34.74-236.74-46.94-355.58-15.09-259.74 2.23-521.07 46.84-777.28 46.38-236.09 110.18-469.48 202.84-691.87 73.95-184.03 167.55-359.4 271.49-528.06z" />
        <path class="fil3" d="M5527.65 2059.98c21.23 35.66 30.64 76.45 43.67 115.47 10.99 33.72 24.59 67.06 28.22 102.63-23.19-40.23-52.25-76.64-76.56-116.22-15.46-29.43-28.78-60.07-37.53-92.21 28.22 43.87 50.29 91.27 79.07 134.76-8.75-48.98-27.19-95.64-36.88-144.44z" />
        <path class="fil3" d="M3272.46 2180.2c7.82-17.6 18.72-33.7 34.08-45.73 2.7 131.98-.1 265.43 28.03 395.16-26.91 5.69-54.48 6.24-81.86 5.69 18.44-3.45 36.88-6.8 55.32-10.15-4.85-115.57-62.68-233.76-18.35-347.75-4.28.75-12.94 2.14-17.22 2.79z" />
        <path class="fil3" d="M6808.67 2295.87a105.586 105.586 0 0 1 29.99 36.42c197.53 334.44 349.99 697.74 431.76 1078.18 8.2 34.74 19.46 69.76 14.81 105.98-38.75-164.38-76.09-329.77-134.3-488.66-65.66-191.29-148.36-376.72-245.49-554.04-29.43-60.91-69.39-116.04-96.76-177.89z" />
        <path class="fil3" d="M2928.81 2400.64c3.63-24.86 5.96-51.31 22.72-71.33 2.88 73.1 2.98 146.87-7.92 219.41-10.25-48.79 14.44-104.49-14.81-148.08z" />
        <path class="fil3" d="M3072.51 3025.56c52.81-69.39 133.92-115.67 218.49-133.36-12.38 19.28-26.35 37.53-40.88 55.22-1.22-9.4-2.24-18.81-3.35-28.21-29.43 12.38-66.32 22.72-77.68 56.44-5.49 23.38 1.59 47.31 3.63 70.69-1.39 35.94-6.61 71.98-2.14 107.93-5.49-32.87-6.7-66.21-9.02-99.37-35.2 27.76-69.67 57.19-97.98 92.11-16.02 16.39-8.01 40.7-6.52 60.82-33.71-55.5-23.19-131.69 15.46-182.26z" />
        <path class="fil3" d="M2706.03 3046.61c19.29 19 33.16 42.28 45.64 66.12 24.11 45.91 56.72 86.62 90.15 126.1 30.64 37.25 77.95 61.18 95.65 108.49 17.22 43.68 41.25 84.29 57.55 128.33-41.26-23.01-73.57-58.3-99.27-97.32-1.4 4-4.1 12.01-5.4 16.02-66.31-112.87-151.89-218.4-184.31-347.75z" />
        <path class="fil3" d="M3502.41 3045.4c5.58 5.96 11.35 11.83 17.22 17.69-.46 13.69-.55 27.47-1.11 41.36 12.29 12.38 24.67 24.77 37.62 36.69-29.33-15.65-60.07-41.44-95.55-30.65-20.11 23.84-26.91 55.7-45.45 80.56-10.81 15.18-33.53 15.93-48.34 6.99-36.13-24.31-46.2-74.88-87.07-93.33-27.94-13.87-47.4 17.33-63.7 35.02 9.03-17.32 18.71-34.18 28.31-51.03-4.47-2.89-13.42-8.66-17.88-11.46 4.75 1.59 14.16 4.94 18.91 6.61 22.45 8.58 45.36 17.14 65.29 30.93 23.38 25.14 32.88 63.88 65.37 79.9 26.35 6.43 44.05-17.6 53.37-38.55 13.41-19.84-6.89-39.67-15.37-57.09 33.63 18.72 69.48 4.65 95.92-19.37-2.7-11.46-5.21-22.82-7.54-34.27z" />
        <path class="fil3" d="M4953.4 3322.84c70.5-81.02 123.68-174.8 184.67-262.81-30.45 131.6-113.98 240.56-167.91 362.09-1.4-4.01-4.38-12.11-5.77-16.21-31.76 28.04-63.33 56.72-99.57 78.89 26.64-55.33 55.79-109.99 88.57-161.96z" />
        <path class="fil3" d="M5376.4 3520.56c9.5-36.6 6.89-75.9 22.54-110.83.1 37.26 3.63 74.42 7.83 111.48-.65 97.98-11.18 196.32-38.84 290.58-20.21 65.84-35.86 133.46-64.17 196.5-41.54 93.88-97.51 181.05-132.62 277.9-13.6 38.18-32.32 74.97-40.42 114.93-5.97 28.13 4.57 55.78 16.02 80.93 30.45 65.1 60.45 130.48 96.76 192.5 29.34 49.73 56.53 101.8 97.04 143.7-107.75-25.32-209.17-71.61-314.88-104.21 8.75-35.76 20.86-70.5 30.27-105.98 33.34-145.85 74.97-291.41 78.89-442.1-.84-32.5 23.09-56.34 40.04-81.39 52.81-72.09 83.73-156.74 114.93-239.63 40.61-104.68 61.93-215.22 86.61-324.38z" />
        <path class="fil3" d="M2459.43 3420.9c34.36 94.43 32.87 197.82 65.28 293.09 28.22 116.97 72.65 229.57 131.69 334.53 17.42 38.55 62.31 64.07 63.7 109.15 2.7 116.6 36.98 229.01 62.68 341.88 16.39 70.32 42.75 137.93 58.21 208.43-65.57 30.55-136.25 47.31-204.06 71.81-59.6 22.26-120.32 41.53-181.6 58.48 31.19-17.87 54.1-46.28 71.8-77.02 46.2-78.97 97.51-155.44 133.37-239.9 16.67-40.14 40.98-78.42 46.28-122.29-2.14-40.51-20.11-77.94-33.43-115.67-31.11-87.07-78.51-167.17-110.08-254.06-47.13-116.14-98.53-232.55-113.72-358.18-1.76-49.92-7.35-99.57-12.75-149.11.37-34.82 12.85-68.17 22.64-101.14z" />
        <path class="fil3" d="M7286.53 3523.53c7.17 7.64 11.55 16.76 13.12 27.2 24.96 124.24 32.97 250.9 46.48 376.72 3.45 107.56 6.89 215.22 3.73 322.88 1.76 195.3-27.39 389.2-61.29 580.96-30.82 147.8-65.94 294.85-109.43 439.48-22.26 72.09-41.44 145.38-71.62 214.67-3.82 11.56-12.75 19.66-22.26 26.55 10.44-27.19 22.26-53.84 32.22-81.21 117.16-350.55 197.53-714.69 221.19-1084.06 14.16-77.94 5.12-157.3 7.92-235.9 1.96-54.11-1.03-108.31-11.46-161.4-5.68-143.05-29.05-284.33-48.61-425.89z" />
        <path class="fil3" d="M2800.93 4176.67c5.69.55 17.05 1.58 22.64 2.13 37.25 87.45 41.26 183.85 63.23 275.4 18.44 72.92 42.75 144.07 63.98 216.25-18.16 16.39-41.16 23.94-65.19 26.08-37.16-137.56-67.8-277.07-82.89-418.91-3.26-33.53-2.98-67.33-1.77-100.95z" />
        <path class="fil3" d="M5013.47 4268.31c6.8-32.41 13.6-67.53 39.21-90.9 14.54 48.52 5.59 99.93 1.87 149.38-16.76 124.43-38.65 248.29-68.65 370.2-20.48-3.08-46.75-2.8-58.76-22.73 1.22-26.91 16.21-51.5 21.8-77.76 27.56-108.13 44.79-218.5 64.54-328.2z" />
        <path class="fil3" d="M5534.07 4325.49c-6.06-19.65-3.36-40.23-1.12-60.17 27.76 76.83 53.18 154.6 86.8 229.11 16.48 37.35 30.17 77.3 59.69 106.82-5.12-36.97-14.62-73.1-23-109.33 15.65 27.94 24.58 58.95 32.87 89.78 12.39 46.28 34.09 89.96 41.07 137.74-20.4-51.03-50.38-97.14-86.99-137.84-49.63-79.07-84.93-166.23-109.33-256.11z" />
        <path class="fil3" d="M2759.77 4872.37c87.27-33.34 176.4-62.49 260.31-103.75-16.21 22.72-43.03 32.69-67.62 43.49-177.5 70.78-357.06 136.16-536.81 200.98-64.44 25.42-130.48 46.75-192.78 77.12 21.15-32.04 61.66-39.58 94.63-53.84 146.77-56.62 296.25-105.7 442.28-164z" />
        <path class="fil3" d="M3876.7 4910.36c19.46 10.34 41.26 23.57 42.75 48.25-21.52-8.48-39.68-24.21-42.75-48.25z" />
        <path class="fil3" d="m3764.2 5380.58 7.26 1.39c47.31 11.83 96.39 7.46 144.63 6.71 63.8-2.33 127.78.75 191.39-6.24l8.65-.65c-18.53 18.25-46.65 9.4-69.76 11.09-92.76-3.63-185.24 2.33-277.62 9.22-1.12-5.4-3.45-16.21-4.57-21.52z" />
        <path class="fil3" d="M3059.57 6355.11c70.5-198.84 131.78-400.75 202.37-599.49.74 52.34-24.86 99.65-39.4 148.82-111.2 346.83-234.78 689.46-352.41 1034.04-46.75 133.37-93.13 266.82-142.02 399.35-66.31 7.73-133.09 2.88-199.68 4.1-43.77-1.59-88.38 5.31-131.6-4.94 106.82-12.67 214.57-2.52 321.68-9.32 120.42-321.77 227.14-648.48 341.05-972.57z" />
        <path class="fil3" d="M6743.2 5979.6c2.61-49.45 7.45-99.46 25.05-146.12 5.03 49.83-10.34 98.53-17.32 147.43l-7.73-1.3z" />
        <path class="fil3" d="M7021.94 6637.67c29.9.85 63.05-3.9 89.23 14.35-27.39-3.63-54.96-5.32-82.43-6.81-.92 11.18-1.76 22.45-2.41 33.81 30.17-1.3 60.35-4.94 89.13-14.71-3.08 4.93-9.13 14.71-12.2 19.55-27.94 1.4-55.88 2.42-83.73 2.89.55-16.39 1.48-32.78 2.41-49.09z" />
        <path class="fil3" d="M605.36 6685.08c-.37-14.34-.28-28.69.65-42.85 1.77 8.11 5.4 24.49 7.17 32.69 27.94-.37 63.89 8.28 79.72-21.98.18 8.85.37 17.7.56 26.73-29.06 5.22-58.59 7.18-88.11 5.4z" />
      </g>
      <g id="__x0023_dbdddeff">
        <path class="fil4" d="M3760.19 920.51c123.96-27.29 251.46-9.78 375.51 8.01 153.3 22.07 308.55 46.65 451.69 108.49 76.46 28.78 147.8 68.83 220.91 104.69 111.1 61.37 200.98 154.97 273.99 257.69 23.1 32.96 51.97 64.17 62.49 103.94-6.89 23.09-20.68 43.21-31.85 64.35-85.5-121.54-185.05-234.04-301-327.26-67.71-49.27-141-97.42-225.48-109.99 36.14 27.19 73.67 52.44 109.99 79.44-19 9.32-.37 27.29 5.86 39.21 38.93 50.29 66.13 111.67 120.98 147.81 45.45 29.15 94.8 58.67 150.13 61.56 59.23 61.74 115.57 126.56 164.56 196.7-35.57-1.03-71.71-13.51-106.82-5.97-28.59 22.92-45.73 56.62-70.04 83.64-9.97-2.71-19.93-5.32-29.8-7.92-.84 5.02-2.42 15.27-3.26 20.4-77.3-125.54-165.21-247.64-277.72-343.94 96.01 114.08 175.37 241.11 249.87 370.01-40.42 5.03-81.77-.74-121.54 8.1-51.5 22.82-50.48 99-104.77 118.74-43.59 6.43-87.73-5.77-131.51-.47-1.67 24.49-5.31 53.46 15.56 71.53 30.27 29.43 75.63 10.71 112.6 10.06 51.4-9.4 112.31 13.69 154.5-26.17 3.9 14.44 7.73 28.96 11.73 43.5 33.8-4.01 66.68-14.72 100.68-17.14 30.08 19.66 46.1 54.76 75.81 75.44-.179-28.03-1.959-55.97-4.279-83.81.931-13.05 2.231-25.99 2.981-38.93 45.911 11.36 94.801 34.08 142.211 17.6 27.571-8.38 40.421-35.77 53.471-58.86 59.691 142.96 108.211 290.85 143.041 441.82 36.981 149.47 65.191 301.74 73.571 455.6 9.591 84.19-1.389 168.66-6.509 252.76-18.629-21.89-17.329-52.53-26.449-78.42-13.879-42.19-25.149-85.03-36.509-127.87 3.26 127.21 3.26 254.61-2.14 381.84-3.729 28.4-1.959 58.39-12.949 85.3-1.959-63.05 6.241-126.19-1.669-189.05-16.949 86.43-22.819 174.9-44.989 260.4-16.67 65.19-28.96 131.5-45.72 196.7-12.58 50.85-34 99.19-43.5 150.77-7.55 41.07-16.11 81.87-27.76 122.01-2.699-6.52-8.189-19.66-10.889-26.27.84-16.58 1.96-33.06 3.08-49.54-3.45 1.49-10.24 4.38-13.69 5.77-10.339 26.17-23.009 51.41-38.649 74.79-33.899 52.52-52.809 113.16-86.889 165.58-27.669 36.98-62.589 67.9-97.699 97.61-37.91 23.28-64.45 59.79-98.63 87.54-23.66 19.46-49.54 35.86-75.9 51.32 89.971-172.2 139.701-361.72 178.531-551.06 12.48-76.28 28.88-152.55 29.99-230.03 1.031-15.46-.919-31.67 4.851-46.38 53.931-121.54 137.461-230.5 167.911-362.09 23.291-69.85 55.701-136.72 71.251-209.08 44.331-150.22 60.621-307.43 53.641-463.62-15.739 276.14-122.559 536.91-254.719 776.54-6.14 10.43-14.34 18.81-24.68 25.15-2.229-34.37.931-68.65 5.321-102.63 6.33-132.72-1.68-265.62 2.41-398.32-5.589-31.77-12.199-63.43-15.279-95.55-9.869-123.13-36.129-244.38-69.469-363.13-.549 74.69 13.041 148.46 11.931 223.15-1.029 61.19 7.731 122 5.771 183.28-32.509-17.42-67.429-30.37-98.819-49.64-18.719-23.09-27.289-52.34-40.139-78.6-85.589-181.42-170.059-364.42-279.299-533.08-15.829-26.64-47.769-46.01-47.399-79.81-10.89-122.84-13.22-249.13-55.32-366.57-42.188-99.93-111.108-185.51-176.488-270.92-52.71-56.34-108.87-113.34-179.37-146.96 98.72 111.67 192.22 229.19 266.26 359.03 48.71 82.79 68.45 178.06 88.38 270.91 32.59 176.95 25.52 358.46 11.46 536.91-10.06 85.59-22.72 170.9-35.86 256.11-12.67 2.98-25.33 5.96-38 8.85-.1-70.04 2.14-140.16 6.14-210.1-8.1-118.19-1.21-239.91-37.43-354.09-4.94-45.82-1.12-91.92-5.5-137.74-.09-17.7-12.94-30.64-22.91-43.68-36.98 30.65-48.99 79.17-46.65 125.45-.47 40.239-1.03 81.019 9.4 120.229 6.71.089 20.11.369 26.82.469 6.71-26.361 10.43-53.271 10.98-80.461 9.41 8.84 18.92 17.5 28.51 26.07.919 88.379-27.851 173.139-46.481 258.629-36.04 141.93-56.06 290.01-121.16 422.63-26.35 61-67.9 113.91-94.53 174.71 40.42-46.941 76.37-97.501 110.64-149.101-37.91 143.79-88.76 286.2-95.65 436.23-102.35-99.941-191.28-214.671-255.92-342.551 11.63 75.809 51.03 142.869 74.41 214.859-88.01-77.491-151.44-179.561-199.68-285.461-44.71-115.021-91.08-230.031-119.48-350.451-13.13-46.101-18.82-93.781-31.94-139.791-4.38 111.109 2.51 222.579 18.99 332.479-19.46-4.371-53.46.279-52.44-28.311-28.68-279.02-36.31-563.63 16.3-840.14-29.33 107.01-49.36 216.44-70.41 325.4-25.05 131.129-29.99 265.329-21.79 398.319 5.59 38.379 8.75 77.029 11.18 115.769-15.46-3.071-38.1 6.709-48.52-7.351-51.87-266.37-29.15-540.27 9.59-806.81-23.66 76.28-47.31 153.2-54.76 233.11-1.86 48.05-39.86 81.58-64.72 119.11-106.45 161.959-193.9 336.019-265.7 516.039-12.3 28.409-46.29 34.739-70.87 48.619 2.14-28.511 4.57-57.001 7.55-85.411 10.89-72.541 10.8-146.311 7.92-219.411-16.76 20.029-19.09 46.469-22.72 71.329-24.12 106.18-40.98 213.93-49.17 322.52-3.16 114.83-4.66 229.76.28 344.49 5.68 48.71 10.06 97.7 7.17 146.77-44.79-34.08-73.39-84.1-107.75-127.87-48.15-62.031-89.03-129.081-130.11-195.951 11.93 54.38 38.18 103.84 56.81 155.99 32.42 129.36 118 234.88 184.31 347.75 10.81 38 3.91 78.69 7.82 117.72 19.19 193.339 56.53 386.309 126.47 567.999 17.88 52.719 52.07 98.819 64.17 153.579-49.36-25.05-88.1-66.12-125.81-105.61-28.51-34.83-56.9-74.22-102.45-86.8-38.75-38.84-66.69-86.52-91.64-134.85-13.97-25.06-27.29-57.65-60.35-59.98l-4.85-1.3c-4.65-9.5-9.03-18.99-13.31-28.5-2.05-6.8-3.83-13.5-5.6-20.21-4.09 16.11-9.22 32.04-14.61 47.87-5.32-42.28-.84-85.5-10.15-127.21-22.26-83.45-53.83-164.01-78.32-246.61-32.69-132.63-51.32-268.59-58.95-404.94-.38-30.55 1.95-61.09 1.95-91.64-9.68 42-16.02 86.15-40.23 122.84-43.31-218.5-30.08-446.1 26.91-660.77 22.82 16.2 46.57 31.11 71.16 44.42-.47-88.1 12.1-180.21-18.07-264.77.84-37.26 18.91-73.58 27.39-110.27 23.46-70.5 44.79-142.77 81.2-207.96 44.05 17.13 84.19 42.38 127.78 60.35 23.66 11.08 49.83 4.94 74.13.09.65 3.45 1.87 10.25 2.52 13.7 0 11.18-.18 22.34-.37 33.62 15.18-9.97 30.45-19.83 45.73-29.62 9.86 8.38 19.46 17.23 30.36 24.4 26.55-1.49 51.32-13.04 76.55-20.67 18.63 14.53 34.74 35.86 58.31 42 27.29-2.24 52.99-12.67 79.07-20.11 15.83 9.87 29.99 27.19 49.54 28.5 33.33-16.11 60.91-42.75 85.3-70.22 14.81-13.6 9.5-39.86-9.4-46.94-43.12-23.57-90.89-.38-135.78 2.79-38.93-26.36-47.03-80.46-84.85-108.41-33.34-10.25-69.2-1.67-103.38-1.02 83.36-161.49 183.94-315.91 313.49-444.43-139.33 91.92-237.21 232.55-320.18 374.48-51.13-22.63-106.26-9.31-159.54-11.92-24.31-19.37-37.16-48.62-52.52-74.79 45.73-59.42 86.89-122.56 137.55-178.16 93.32-114.73 209.08-208.9 330.43-292.62-75.81 29.9-141.66 78.89-206.1 127.78-94.72 74.89-171.08 169.04-247.36 261.8-26.54 1.3-52.99 3.53-79.44 5.77 60.35-100.12 145.01-182.17 224.91-266.27 80.19-86.52 175.65-158.42 278.75-215.41 139.51-67.71 288.33-124.05 444.61-133.18 45.63-.27 85.3-23.56 127.02-38.37zm-177.69 163.35c-74.88 41.63-146.86 88.48-216.06 138.58 51.87-15.28 103.75-34.08 158.51-35.02-24.69 69.57-54.02 138.4-64.18 212.16 43.97-138.02 137.28-269.99 273.63-328.38 42.75-21.98 88.19 1.67 124.05 25.7 10.43-19.37 21.42-38.47 30.36-58.68-38.27-35.11-83.44-61.65-131.5-80.83-66.12 30.92-112.87 89.5-174.81 126.47zm377.93-31.67c26.26 2.24 52.71 1.96 78.88-.84-24.03-17.22-54.01-11.18-78.88.84zm282.28 30.92c97.04 57.37 195.95 111.95 287.49 178.16-78.88-82.51-183.18-135.03-287.49-178.16zm-603.5 727.36c2.61-59.42 13.79-117.91 21.52-176.77 14.25-90.8 27.29-182.53 58.21-269.42-64.82 137.74-99 294.1-79.72 446.19zm75.81 31.57c-5.02 35.86-6.52 72.27-2.7 108.31 3.07 26.55 4.47 56.25 24.77 76.18 23.19-60.44 33.25-124.89 46.57-187.94-23.01-1.86-46-.65-68.64 3.45zm408.85 65.1c-5.96 30.26.75 62.3 20.03 86.7 38.18 14.25 77.2-38.74 52.06-71.8-12.57-28.87-48.05-15.36-72.08-14.9zm-453.37 99.46c-.84 31.76 4.29 63.33 9.87 94.62 19 92.95 45.91 185.43 92.76 268.5-30.17-95.36-55.69-192.13-81.58-288.71-7.55-24.68-8.28-51.69-21.05-74.41z" />
        <path class="fil4" d="M5281.04 1767.54c18.24-10.34 30.45-28.41 44.7-43.3 43.5 60.81 69.2 131.6 97.41 200.23 19.47 48.99 43.4 96.02 62.31 145.19 8.75 32.14 22.07 62.77 37.53 92.21-4.28 70.41 32.04 132.99 52.15 198.27 17.05 56.07 39.58 113.99 30.55 173.69-4.47 15.93-8.38 32.13-6.98 48.8 4.28 178.43-27.47 358.55-99.47 522.27-23.19 46.2-42.56 95.93-78.6 134.12 42.65-136.53 73.48-279.4 61.29-423.2-14.99-167.82-46.57-334.25-93.41-496.11-46.48-133.54-87.27-270.45-154.42-395.43l2.33-5.77c8.95-21.15 17.51-42.38 26.27-63.61 21.42 39.12 42 78.88 67.8 115.39-22.72-77.67-58.86-150.31-96.29-221.65 14.81 7.63 29.62 17.88 46.85 18.91z" />
        <path class="fil4" d="M2532.81 1805.72c17.42-28.22 32.13-62.31 65.47-74.88 1.67 28.31.27 56.72-2.05 84.93 4.47-1.02 13.42-2.98 17.88-4-24.59 56.52-51.69 113.43-57.93 175.55 14.43-27.19 27.01-55.32 41.9-82.24 11.93 5.31 23.84 10.43 35.86 15.56a1684.63 1684.63 0 0 0-137.64 380.99c-20.96 94.44-47.5 187.76-61.66 283.59-14.99 110.46-26.92 221.66-23.56 333.33.46 119.3 22.16 237.21 49.91 352.78-20.11-29.33-41.07-58.39-56.72-90.52-67.98-147.52-119.11-304.82-132.62-467.43-2.61-33.99 1.49-68.64-8.38-101.7-5.77-24.95-8.2-50.57-5.96-76 7.08-58.11 16.85-116.04 34.55-171.92 26.54-16.76 31.94-49.45 42.28-76.74 13.23-40.89 31.94-79.72 46.48-120.23 38.84-124.62 81.86-250.16 152.18-361.07z" />
        <path class="fil4" d="M3395.3 2593.34c15.56 1.39 31.2 3.08 46.94 4.94 12.1 55.22 33.53 107.84 45.63 162.97-48.52-44.24-68.17-109.05-92.58-167.91z" />
        <path class="fil4" d="M4605.46 2892.76c60.44 28.78 123.87 56.72 168.84 108.41 53.09 48.71 72.55 129.08 47.59 196.78-1.76-15.74-1.58-32.88-11.36-46.2-26.35-37.72-59.97-69.57-92.2-102.25-1.77 31.94-3.73 63.88-9.32 95.36-6.06-36.88-1.21-74.31-5.68-111.29-14.81-57.09-56.35-101.23-97.88-140.82z" />
        <path class="fil4" d="M3218.07 3253.92c17.51-16.48 43.87-10.98 60.25 4.1 20.68 23.75 28.59 56.72 22.82 87.45-37.81-19.66-64.63-53.93-83.07-91.55z" />
        <path class="fil4" d="M4355.58 3272.92c16.67-6.06 33.43-12.01 50.2-17.88 9.59 32.31 18.62 64.92 26.45 97.88-30.27-21.7-59.88-45.91-76.65-80z" />
        <path class="fil4" d="M5406.76 3521.21c13.13 84.93 3.45 172.29 25.23 256.11 33.34 139.04 62.4 278.93 94.81 418.16 4.65 22.91 6.05 46.38 6.14 69.84-2.24 19.94-4.94 40.52 1.12 60.17 24.4 89.88 59.7 177.04 109.33 256.11-10.89 21.8 3.45 44.24 9.97 65.1 29.43 73.39 60.25 146.22 86.7 220.81 74.41 178.26 123.77 366.75 149.85 557.95-41.16-89.97-69.39-185.34-107.57-276.61-32.88-69.66-69.39-138.11-115.77-199.76-23.28-35.57-70.31-33.62-104.31-52.71-23.93-93.04-54.3-184.22-88.38-274 .1 84.66 24.58 167.17 23.28 251.92-53.73-13.41-108.03-29.33-156.65-56.07-40.51-41.9-67.7-93.97-97.04-143.7-36.31-62.03-66.31-127.4-96.76-192.5-11.45-25.15-21.98-52.81-16.02-80.93 8.1-39.95 26.82-76.75 40.42-114.93 35.11-96.85 91.08-184.02 132.62-277.9 28.31-63.05 43.96-130.66 64.17-196.5 27.66-94.26 38.18-192.6 38.84-290.58z" />
        <path class="fil4" d="M2449.55 3671.15c15.19 125.63 66.59 242.05 113.72 358.18 31.57 86.89 78.97 166.98 110.08 254.06 13.32 37.73 31.29 75.16 33.43 115.67-5.31 43.87-29.62 82.15-46.28 122.29-35.86 84.47-87.17 160.93-133.37 239.9-17.7 30.74-40.61 59.14-71.8 77.02-32.88 14.54-67.61 24.59-101.98 35.12-.38-70.69 18.71-140.73 9.68-211.41-33.62 70.96-50.57 149.19-74.96 223.7-36.88 30.17-90.62 28.5-127.78 58.48-23.66 23.19-39.67 52.71-58.39 79.81-99.93 147.81-142.96 323.54-201.35 489.78-10.61.28-21.14.56-31.66.93-35.67-122.28-9.78-252.1 15.83-373.83l4.57-1.4c29.89-6.24 55.87-24.86 71.61-51.13 13.42-20.85 23.47-43.59 34-66.03 57.36-121.54 121.16-240.28 168.47-366.28 19.18-48.53 35.49-99.94 70.78-139.71 36.79-43.67 50.29-100.11 73.76-150.96 14.44-2.52 23.94-13.32 27.01-27.29 23.75-75.16 55.41-148.64 63.06-227.8 9.69-92.39 22.54-184.4 31.39-276.88 8.28-53.93 25.52-106.92 20.2-162.23z" />
        <path class="fil4" d="M924.15 3942.82c2.42-12.85-2.24-32.51 11.92-39.39 19.47-1.4 38.93-.28 58.49-.1-.93 97.13-2.98 194.36 2.14 291.4 1.67 38.19 4.47 76.56.84 114.83-18.07.47-36.14 1.12-54.21 1.77-16.57-71.98-9.87-146.31-18.34-219.23-2.42-49.74-1.59-99.57-.84-149.29z" />
      </g>
      <g id="__x0023_25faf9ff">
        <path class="fil5" d="M3436.28 3045.68c21.69-4.95 44.14-1.96 66.12-.28 2.33 11.45 4.84 22.81 7.54 34.27-26.44 24.03-62.3 38.1-95.92 19.37 1.96-19.56.56-44.42 22.27-53.36z" />
        <path class="fil5" d="M4566.62 3056.3c26.91-24.68 66.03-9.87 95.92.93 2.42 11.17 4.94 22.35 7.73 33.43-20.77-10.15-48.24-15.93-64.08 5.49 21.52 7.18 49.36 9.87 59.88 33.44 26.55 55.13 2.61 117.34-25.7 166.79-17.97 34.83-57.74 46.57-91.27 60.82-37.35 15.37-81.86 18.62-116.88-4.28-7.83-32.96-16.86-65.57-26.45-97.88-16.76 5.87-33.53 11.83-50.2 17.88-18.17-34.18-36.61-71.9-32.59-111.67 18.72-38.55 67.52-71.9 109.15-45.08-6.14-4.94-12.2-9.97-18.07-14.99-13.69.37-27.29.74-40.88 1.59 12.85-6.81 25.23-14.44 35.86-24.49-22.27-3.91-44.89-6.71-65.38-16.68 26.18 8.38 54.02 12.11 81.13 5.97-4.66 5.21-9.32 10.51-13.79 15.92 31.76 31.02 27.38 82.33 62.3 111.85 28.78.28 62.03-3.91 79.17-29.99 4.56-36.41 2.98-73.76 14.16-109.06z" />
        <path class="fil5" d="M3216.03 3139.74c16.3-17.69 35.76-48.89 63.7-35.02 40.88 18.45 50.95 69.02 87.07 93.33 14.81 8.94 37.53 8.19 48.34-6.99 18.54-24.86 25.33-56.72 45.45-80.56 35.49-10.8 66.22 15 95.55 30.65 3.36 49.83-29.7 94.25-25.05 144.53-12.2 21.8-27.57 42.66-48.62 56.62-36.69 4.85-69.29 26.36-106.54 27.57-27.1 1.59-52.07-11.26-74.79-24.4 5.77-30.74-2.14-63.7-22.82-87.45-16.38-15.08-42.74-20.58-60.25-4.1-16.58-35.48-23.09-78.97-2.04-114.18z" />
      </g>
      <path class="fil6" d="M2855.27 8107.91v-53.64l51.07-9.83v-349.36l-51.07-9.83v-54.09H3036.32l134.89 338.63h1.9l130.65-338.63h182.06v54.09l-51.41 9.83v349.36l51.41 9.83v53.64h-191.9v-53.64l54.09-9.83v-101.26l1.24-211.78-1.57-.33-145.4 368.01h-65.82l-148.97-365.78-1.9.34 5.14 201.72v109.08l56.33 9.83v53.64h-191.78zm883 6.93c-31.85-.12-60.79-6.04-86.72-17.88-26.03-11.96-48.39-28.72-67.05-50.4-18.66-21.8-32.97-47.28-43.03-76.67-10.06-29.39-15.08-61.58-15.08-96.78v-7.16c0-34.98 5.02-67.05 15.08-96.44 10.06-29.39 24.37-54.88 43.03-76.56 18.66-21.79 41.02-38.67 66.82-50.62 25.94-11.96 54.76-17.99 86.62-17.99 32.52 0 61.8 6.04 87.95 17.99 26.04 11.96 48.5 28.84 67.28 50.62 18.77 21.68 33.08 47.17 43.02 76.56 9.95 29.39 14.87 61.46 14.87 96.44v7.16c0 35.2-4.92 67.39-14.87 96.78-9.94 29.39-24.25 54.87-42.91 76.67-18.66 21.68-41.12 38.45-67.27 50.4-26.16 11.85-55.43 17.77-87.74 17.88zm0-70.08c27.94 0 51.07-7.16 69.4-21.46 18.33-14.3 32.08-34.31 41.12-60.13 9.05-25.7 13.52-55.77 13.52-90.07v-7.83c0-33.86-4.58-63.48-13.75-89.07-9.16-25.48-22.91-45.48-41.35-59.9-18.44-14.41-41.57-21.56-69.29-21.56-27.05 0-49.62 7.16-67.73 21.46-18.22 14.3-31.74 34.2-40.79 59.68-9.04 25.59-13.63 55.32-13.63 89.4v7.83c0 34.08 4.59 64.04 13.63 89.97 9.05 25.82 22.69 45.93 40.91 60.23 18.22 14.3 40.9 21.46 67.94 21.46zm433.17 63.14-154.9-417.41-41.23-5.26v-54.09h181.37v54.09l-43.25 6.81 96.33 285.88 8.16 28.5h2.02l8.16-27.83 96.89-286.88-49.73-6.48v-54.09h174.45v54.09l-42.24 5.26-146.96 417.41h-89.07zm311.02 0v-53.64l51.4-9.83v-349.36l-51.4-9.83v-54.09h191.89v54.09l-51.41 9.83v349.36l51.41 9.83v53.64h-191.89zm231.78 0v-53.64l51.4-9.83v-349.36l-51.4-9.83v-54.09h366.34v125.73h-68.73l-4.92-57.22h-152.22v127.29H5019v69.06h-164.29v143.83h160.71l4.92-58.68h68.06v126.74h-374.17z" />
    </g>
  </g>
</svg>